<svg xmlns="http://www.w3.org/2000/svg" xmlns:xlink="http://www.w3.org/1999/xlink" width="80" height="80" viewBox="0 0 80 80">
  <defs>
    <clipPath id="clip-path">
      <rect id="Rectangle_142" data-name="Rectangle 142" width="80" height="80" transform="translate(1079 4189)" fill="#bebfa8"/>
    </clipPath>
  </defs>
  <g id="_1-1" data-name="1-1" transform="translate(-1079 -4189)" clip-path="url(#clip-path)">
    <path id="risk_10983204" d="M46.094,23.915a1.319,1.319,0,1,1,2-1.718l.478.567.478-.567a1.318,1.318,0,0,1,1.86-.142,1.3,1.3,0,0,1,.142,1.86l-1.63,1.878a1.3,1.3,0,0,1-1.842-.142ZM27.777,52.684h4.588a1.317,1.317,0,0,1,1.311,1.488l-.726,14.65a1.321,1.321,0,0,1-1.311,1.258H28.663a1.312,1.312,0,0,1-1.311-1.329l-.886-14.668a1.308,1.308,0,0,1,1.311-1.4Zm3.189,2.64H29.159l.726,12.117h.478ZM29.088,74.278h1.949v-.992H29.088Zm3.26,2.64H27.759a1.323,1.323,0,0,1-1.329-1.311V71.975a1.312,1.312,0,0,1,1.329-1.311h4.588a1.308,1.308,0,0,1,1.311,1.311v3.632A1.308,1.308,0,0,1,32.347,76.918ZM30.062,46.8a18.409,18.409,0,0,1,2.427.159V24.287A1.308,1.308,0,0,1,33.8,22.976h6.679a1.323,1.323,0,0,1,1.329,1.311V51.161c.319.283.638.567.939.868V48.822A3.9,3.9,0,0,1,45.935,45V33.534a1.323,1.323,0,0,1,1.311-1.329h6.679a1.312,1.312,0,0,1,1.311,1.329V44.943h4.128V20.709A1.308,1.308,0,0,1,60.673,19.4h6.679a1.308,1.308,0,0,1,1.311,1.311V44.943h6.058a3.89,3.89,0,0,1,3.88,3.88V74.934a.862.862,0,0,1-.018.213,1.377,1.377,0,0,1-.372.709l-9.088,9.088a1.3,1.3,0,0,1-.939.39H46.626a3.89,3.89,0,0,1-3.88-3.88v-3.9a18,18,0,1,1-23.7-27V38.831a1.308,1.308,0,0,1,1.311-1.311h6.679a1.308,1.308,0,0,1,1.311,1.311v8.043c.567-.035,1.134-.071,1.718-.071Zm5.049.726a17.87,17.87,0,0,1,4.039,1.754V25.616H35.111Zm10.257,7.812a18.064,18.064,0,0,1,0,18.919v7.21a1.263,1.263,0,0,0,1.258,1.258H66.909V77.52a3.89,3.89,0,0,1,3.88-3.88H76V48.84a1.263,1.263,0,0,0-1.258-1.258H46.626a1.263,1.263,0,0,0-1.258,1.258Zm-23.7-6.448A17.626,17.626,0,0,1,25.7,47.352V40.177H21.665Zm19.256,5.049a15.357,15.357,0,1,0,0,21.718A15.343,15.343,0,0,0,40.921,53.942Zm8.716,24.535a1.311,1.311,0,0,1,0-2.622H62.445a1.311,1.311,0,0,1,0,2.622Zm15.89-7.4a1.32,1.32,0,0,1,0-2.64h6.236a1.32,1.32,0,1,1,0,2.64Zm0-5.314a1.308,1.308,0,0,1-1.311-1.311,1.323,1.323,0,0,1,1.311-1.329h6.236a1.327,1.327,0,0,1,1.329,1.329,1.312,1.312,0,0,1-1.329,1.311Zm0-5.314a1.311,1.311,0,0,1,0-2.622h6.236a1.311,1.311,0,1,1,0,2.622Zm0-5.3a1.311,1.311,0,0,1,0-2.622h6.236a1.311,1.311,0,1,1,0,2.622ZM49.07,65.7a1.287,1.287,0,0,1,1.187-1.417,1.314,1.314,0,0,1,1.435,1.187c.195,2.179,3.9,3.313,6.023,1.559a2.289,2.289,0,0,0,.921-1.754c0-4.376-9.584-.585-9.584-7.83,0-2.657,2.2-4.624,4.765-5.1V50.93a1.338,1.338,0,1,1,2.675.018l-.035,1.382c2.569.478,4.8,2.445,4.8,5.12a1.311,1.311,0,0,1-2.622,0c0-2.3-3.844-3.543-6.023-1.754a2.289,2.289,0,0,0-.921,1.754c0,4.376,9.584.585,9.584,7.83,0,2.675-2.214,4.624-4.783,5.12l-.035,1.417a1.311,1.311,0,1,1-2.622,0V70.4A5.581,5.581,0,0,1,49.07,65.7ZM74.137,76.262H70.789a1.263,1.263,0,0,0-1.258,1.258v3.348Zm-25.58-31.32h4.057V34.863H48.556Zm13.463,0h4.039V22.02H62.02ZM54.243,20.16a1.318,1.318,0,0,1-1.86.142,1.3,1.3,0,0,1-.142-1.86l1.134-1.329a1.318,1.318,0,0,1,1.86-.142,1.3,1.3,0,0,1,.142,1.86Zm4.464-5.244a1.319,1.319,0,1,1-2-1.718l1.311-1.541a1.3,1.3,0,0,1,1.842-.142A1.318,1.318,0,0,1,60,13.375Zm4.57-5.368a1.319,1.319,0,0,1-2-1.718l1.736-2.037a1.318,1.318,0,0,1,1.86-.142,1.3,1.3,0,0,1,.142,1.842ZM44.889,18.441a1.319,1.319,0,1,1-2,1.718l-1.134-1.329a1.319,1.319,0,0,1,2-1.718Zm-4.163-4.854a1.312,1.312,0,1,1-1.984,1.718l-3.826-4.5L25,22.445a1.329,1.329,0,0,1-2.019-.018l-1.825-2.143a1.312,1.312,0,1,1,1.984-1.718l.85.992L34.048,7.777a1.313,1.313,0,0,1,1.842.142Z" transform="translate(1073.664 4183.667)" fill="#bebfa8"/>
  </g>
</svg>
