<svg xmlns="http://www.w3.org/2000/svg" xmlns:xlink="http://www.w3.org/1999/xlink" width="80" height="80" viewBox="0 0 80 80">
  <defs>
    <clipPath id="clip-path">
      <rect id="Rectangle_143" data-name="Rectangle 143" width="80" height="80" transform="translate(1079 4325)" fill="#bebfa8"/>
    </clipPath>
  </defs>
  <g id="_1-2" data-name="1-2" transform="translate(-1079 -4325)" clip-path="url(#clip-path)">
    <g id="labor_12088166" transform="translate(1079 4325)">
      <g id="Group_277" data-name="Group 277">
        <path id="Path_202" data-name="Path 202" d="M20.276,63H24.8a1.172,1.172,0,0,0,0-2.344H20.276a1.172,1.172,0,0,0,0,2.344Z" fill="#bebfa8"/>
        <path id="Path_203" data-name="Path 203" d="M20.276,67.576h11.06a1.172,1.172,0,1,0,0-2.344H20.276a1.172,1.172,0,0,0,0,2.344Z" fill="#bebfa8"/>
        <path id="Path_204" data-name="Path 204" d="M20.276,72.147H36.124a1.172,1.172,0,0,0,0-2.344H20.276a1.172,1.172,0,0,0,0,2.344Z" fill="#bebfa8"/>
        <path id="Path_205" data-name="Path 205" d="M62.4,66.4a6.183,6.183,0,1,0-6.183,6.183A6.19,6.19,0,0,0,62.4,66.4Zm-10.022,0a3.839,3.839,0,1,1,3.839,3.839A3.843,3.843,0,0,1,52.378,66.4Z" fill="#bebfa8"/>
        <path id="Path_206" data-name="Path 206" d="M70.9,32.6H68.27V11.272a2.738,2.738,0,0,0-2.734-2.734h-12a16.053,16.053,0,0,0-.968-1.323A16.289,16.289,0,0,0,44.191,1.8,2.736,2.736,0,0,0,41.625,0h-3.25a2.737,2.737,0,0,0-2.566,1.8,16.29,16.29,0,0,0-8.376,5.415,16.053,16.053,0,0,0-.968,1.323h-12a2.738,2.738,0,0,0-2.734,2.734V38.061H9.1A2.738,2.738,0,0,0,6.364,40.8V51.458A2.738,2.738,0,0,0,9.1,54.192H11.73v6.584a1.172,1.172,0,0,0,2.344,0V54.193h10.74a1.164,1.164,0,0,1,.829.343L36.348,65.241a4.2,4.2,0,0,0,7.167-3.057l.087,0a4.2,4.2,0,0,0,4.2-4.2c0-.029,0-.058,0-.087l.085,0A4.191,4.191,0,0,0,52,54.553a4.2,4.2,0,0,0,4.937-6.115h8.992V77.266a.391.391,0,0,1-.391.391H14.465a.391.391,0,0,1-.391-.391V66.245a1.172,1.172,0,0,0-2.344,0v11.02A2.738,2.738,0,0,0,14.465,80H65.535a2.738,2.738,0,0,0,2.734-2.734V48.438H70.9A2.738,2.738,0,0,0,73.636,45.7V35.33A2.738,2.738,0,0,0,70.9,32.6ZM29.248,8.7A13.948,13.948,0,0,1,35.64,4.3v.755a1.172,1.172,0,0,0,2.344,0V2.734a.391.391,0,0,1,.391-.391h3.25a.391.391,0,0,1,.391.391v9.793a.391.391,0,0,1-.391.391h-3.25a.391.391,0,0,1-.391-.391V10.52a1.172,1.172,0,1,0-2.344,0v2.007a2.738,2.738,0,0,0,2.734,2.734h3.25a2.738,2.738,0,0,0,2.734-2.734V4.3a13.872,13.872,0,0,1,9.515,13.171v.73H26.125v-.73A13.9,13.9,0,0,1,29.248,8.7Zm27.08,11.844v2.428H23.672V20.541ZM54.622,51.877a1.859,1.859,0,0,1-2.626,0l-4.916-4.916a1.172,1.172,0,0,0-1.657,1.657L49.2,52.394a1.857,1.857,0,0,1-2.627,2.625L42.8,51.245A1.172,1.172,0,1,0,41.141,52.9l3.773,3.773A1.857,1.857,0,0,1,42.289,59.3l-3.774-3.773a1.172,1.172,0,0,0-1.657,1.657l3.774,3.773a1.857,1.857,0,1,1-2.626,2.626L27.3,52.878a3.493,3.493,0,0,0-2.486-1.03H9.1a.391.391,0,0,1-.391-.391V40.8A.391.391,0,0,1,9.1,40.4H22.346a3.492,3.492,0,0,0,2.486-1.03l5.392-5.393a2.716,2.716,0,0,1,1.934-.8h3.064l-3.841,3.841a3.318,3.318,0,0,0,2.346,5.664h2.047A9.589,9.589,0,0,0,42.6,39.859l1.107-1.107a.388.388,0,0,1,.276-.114h0a.389.389,0,0,1,.277.116l10.362,10.5a1.859,1.859,0,0,1,0,2.626ZM71.292,45.7a.391.391,0,0,1-.391.391H54.8l-8.873-8.987a2.735,2.735,0,0,0-3.88-.013L40.942,38.2a7.261,7.261,0,0,1-5.168,2.14H33.727a.974.974,0,0,1-.689-1.663L40.8,30.916a1.347,1.347,0,0,1,.96-.4H44.03a1.172,1.172,0,0,0,0-2.344H41.761a3.676,3.676,0,0,0-2.617,1.084l-1.579,1.579H32.157a5.044,5.044,0,0,0-3.591,1.488l-5.392,5.393a1.164,1.164,0,0,1-.829.343H14.074V11.272a.391.391,0,0,1,.391-.391H25.183a16.249,16.249,0,0,0-1.4,6.585v.73h-.5a1.955,1.955,0,0,0-1.953,1.953V23.36a1.955,1.955,0,0,0,1.953,1.953H56.718a1.955,1.955,0,0,0,1.953-1.953V20.15A1.955,1.955,0,0,0,56.718,18.2h-.5v-.73a16.248,16.248,0,0,0-1.4-6.585H65.535a.391.391,0,0,1,.391.391V32.6H58.367a1.164,1.164,0,0,1-.829-.343l-2.59-2.59a5.045,5.045,0,0,0-3.591-1.487H49.5a1.172,1.172,0,0,0,0,2.344h1.859a2.717,2.717,0,0,1,1.934.8l2.59,2.59a3.492,3.492,0,0,0,2.486,1.03H70.9a.391.391,0,0,1,.391.391V45.7Z" fill="#bebfa8"/>
      </g>
    </g>
  </g>
</svg>
