<svg xmlns="http://www.w3.org/2000/svg" xmlns:xlink="http://www.w3.org/1999/xlink" width="80" height="80" viewBox="0 0 80 80">
  <defs>
    <clipPath id="clip-path">
      <rect id="Rectangle_144" data-name="Rectangle 144" width="80" height="80" transform="translate(1079 4461)" fill="#bebfa8"/>
    </clipPath>
  </defs>
  <g id="_1-3" data-name="1-3" transform="translate(-1079 -4461)" clip-path="url(#clip-path)">
    <g id="licenses_10296233" transform="translate(1079 4461)">
      <path id="Path_207" data-name="Path 207" d="M66.156,9.391A9.952,9.952,0,0,0,56.232,0H26.867a1.172,1.172,0,0,0,0,2.344H56.232A7.6,7.6,0,0,1,63.8,9.375H23.769a9.952,9.952,0,0,0-9.94,9.94V68.258A7.605,7.605,0,0,1,6.8,60.685V9.94a7.605,7.605,0,0,1,7.6-7.6H22.18A1.172,1.172,0,1,0,22.18,0H14.394a9.952,9.952,0,0,0-9.94,9.94V60.685a9.952,9.952,0,0,0,9.391,9.925A9.952,9.952,0,0,0,23.769,80h24.8a7.032,7.032,0,0,0,4.962-2.055L61.979,69.5a1.172,1.172,0,1,0-1.657-1.657L52.164,76V64.214a7.605,7.605,0,0,1,7.6-7.6H71.546l-7.91,7.91a1.172,1.172,0,0,0,1.657,1.657l8.2-8.2a7.035,7.035,0,0,0,2.055-4.962V19.315A9.953,9.953,0,0,0,66.156,9.391Zm-6.4,44.883a9.952,9.952,0,0,0-9.94,9.94V77.485a4.628,4.628,0,0,1-1.25.171h-24.8a7.605,7.605,0,0,1-7.6-7.6V19.315a7.605,7.605,0,0,1,7.6-7.6H65.607a7.605,7.605,0,0,1,7.6,7.6V53.024a4.627,4.627,0,0,1-.171,1.25H59.761Z" fill="#bebfa8"/>
      <path id="Path_208" data-name="Path 208" d="M31.566,27.494a64.137,64.137,0,0,0,.6,6.69,4.09,4.09,0,0,0,3.45,3.453,64.27,64.27,0,0,0,18.145,0,4.089,4.089,0,0,0,3.45-3.452,64.154,64.154,0,0,0,.6-6.688,4.071,4.071,0,0,0-.455-6.754L46.726,14.607a4.1,4.1,0,0,0-4.078,0L32.021,20.744a4.086,4.086,0,0,0-1.492,5.571,4.034,4.034,0,0,0,1.037,1.179Zm9.728,8.35V32.032a3.4,3.4,0,0,1,3.394-3.394,3.338,3.338,0,0,1,3.394,3.089v4.115a61.255,61.255,0,0,1-6.788,0Zm12.134-.527q-1.489.214-3,.353V31.728a5.667,5.667,0,0,0-5.738-5.433,5.744,5.744,0,0,0-5.738,5.738v3.637q-1.51-.141-3-.353a1.734,1.734,0,0,1-1.463-1.464c-.26-1.82-.439-3.665-.535-5.5a4.054,4.054,0,0,0,2.151-.542l8.587-4.958,8.587,4.958a4.041,4.041,0,0,0,2.15.543c-.1,1.848-.275,3.692-.535,5.5a1.733,1.733,0,0,1-1.463,1.463ZM33.194,22.773l10.625-6.134a1.744,1.744,0,0,1,1.736,0L56.18,22.772a1.735,1.735,0,1,1-1.734,3L45.859,20.82v-.5a1.172,1.172,0,0,0-2.344,0v.5l-8.586,4.958a1.735,1.735,0,1,1-1.735-3Z" fill="#bebfa8"/>
      <path id="Path_209" data-name="Path 209" d="M42.1,52.375a4,4,0,0,0-5.642,0l-.307.307a12.021,12.021,0,1,0,5.415,5.869l.534-.534a3.994,3.994,0,0,0,0-5.642ZM40.44,54.032a1.648,1.648,0,0,1,0,2.327l-11.27,11.27a1.647,1.647,0,0,1-2.809-1.164V60.2a1.646,1.646,0,0,1,3.265-.292,1.174,1.174,0,0,0,1.982.623l6.5-6.5a1.648,1.648,0,0,1,2.327,0Zm-.693,6.335A9.676,9.676,0,1,1,34.4,54.435l-3.273,3.274a3.991,3.991,0,0,0-7.1,2.5v6.261a3.99,3.99,0,0,0,6.81,2.821Z" fill="#bebfa8"/>
      <path id="Path_210" data-name="Path 210" d="M56.406,40.625H32.969a3.516,3.516,0,0,0,0,7.031H56.406a3.516,3.516,0,0,0,0-7.031Zm0,4.688H32.969a1.172,1.172,0,0,1,0-2.344H56.406a1.172,1.172,0,0,1,0,2.344Z" fill="#bebfa8"/>
    </g>
  </g>
</svg>
