<svg xmlns="http://www.w3.org/2000/svg" xmlns:xlink="http://www.w3.org/1999/xlink" width="80" height="80" viewBox="0 0 80 80">
  <defs>
    <clipPath id="clip-path">
      <rect id="Rectangle_145" data-name="Rectangle 145" width="80" height="80" transform="translate(635 4185)" fill="#bebfa8"/>
    </clipPath>
  </defs>
  <g id="_1-4" data-name="1-4" transform="translate(-635 -4185)" clip-path="url(#clip-path)">
    <g id="deal_9948770" transform="translate(633.656 4183.75)">
      <g id="Group_303" data-name="Group 303">
        <g id="Group_282" data-name="Group 282">
          <g id="Group_280" data-name="Group 280">
            <g id="Group_278" data-name="Group 278">
              <path id="Path_211" data-name="Path 211" d="M3.25,66.875A1.181,1.181,0,0,1,2,65.625V8.875A7.683,7.683,0,0,1,9.75,1.25H56.375A7.576,7.576,0,0,1,64,8.875v33.75a1.25,1.25,0,0,1-2.5,0V8.875A5.069,5.069,0,0,0,56.375,3.75H9.75A5.176,5.176,0,0,0,4.5,8.875v56.75a1.181,1.181,0,0,1-1.25,1.25Z" fill="#bebfa8"/>
            </g>
            <g id="Group_279" data-name="Group 279">
              <path id="Path_212" data-name="Path 212" d="M56.375,81.25H17.625a1.25,1.25,0,1,1,0-2.5H56.25a5.069,5.069,0,0,0,5.125-5.125,1.25,1.25,0,0,1,2.5,0A7.471,7.471,0,0,1,56.375,81.25Z" fill="#bebfa8"/>
            </g>
          </g>
          <g id="Group_281" data-name="Group 281">
            <path id="Path_213" data-name="Path 213" d="M17.625,81.25a1.135,1.135,0,0,1-.875-.375L2.375,66.5a1.141,1.141,0,0,1-.25-1.375,1.2,1.2,0,0,1,1.125-.75h10a5.468,5.468,0,0,1,5.5,5.5v10A1.093,1.093,0,0,1,18,81C18,81.25,17.875,81.25,17.625,81.25ZM6.375,66.875,16.5,77V70a3.042,3.042,0,0,0-3-3H6.375Z" fill="#bebfa8"/>
          </g>
        </g>
        <g id="Group_298" data-name="Group 298">
          <g id="Group_283" data-name="Group 283">
            <path id="Path_214" data-name="Path 214" d="M13.75,27.75a1.35,1.35,0,0,1-.875-.375l-3.75-3.25A1.339,1.339,0,0,1,9,22.375L20.625,8.5A2.015,2.015,0,0,1,21.5,8a1.135,1.135,0,0,1,.875.375l3.75,3.25a1.339,1.339,0,0,1,.125,1.75L14.75,27.25a1.137,1.137,0,0,1-1,.5Zm-2-4.625,1.875,1.625,10-12L21.75,11.125Z" fill="#bebfa8"/>
          </g>
          <g id="Group_284" data-name="Group 284">
            <path id="Path_215" data-name="Path 215" d="M34.75,18.375h-.375L23.5,15.625a1.228,1.228,0,1,1,.625-2.375L35,16a1.186,1.186,0,0,1,.875,1.5A1.2,1.2,0,0,1,34.75,18.375Z" fill="#bebfa8"/>
          </g>
          <g id="Group_285" data-name="Group 285">
            <path id="Path_216" data-name="Path 216" d="M44.75,32a1.419,1.419,0,0,1-1-.375L35.5,22.25a1.241,1.241,0,0,1,1.875-1.625L45.625,30a1.215,1.215,0,0,1-.125,1.75,1.777,1.777,0,0,1-.75.25Z" fill="#bebfa8"/>
          </g>
          <g id="Group_286" data-name="Group 286">
            <path id="Path_217" data-name="Path 217" d="M46,39.375h-.25a3.719,3.719,0,0,1-2.5-1.25L39.375,33.5a1.241,1.241,0,0,1,1.875-1.625L45.125,36.5a.891.891,0,0,0,.75.375,1.777,1.777,0,0,0,.75-.25,1.021,1.021,0,0,0,.125-1.5L42.875,30.5a1.241,1.241,0,0,1,1.875-1.625L48.625,33.5a3.553,3.553,0,0,1-.375,5,3.332,3.332,0,0,1-2.25.875Z" fill="#bebfa8"/>
          </g>
          <g id="Group_287" data-name="Group 287">
            <path id="Path_218" data-name="Path 218" d="M41.875,41.625h-.25a3.263,3.263,0,0,1-2.5-1.25l-3.25-3.75A1.241,1.241,0,1,1,37.75,35L41,38.75a1.138,1.138,0,0,0,1.5.125,1.029,1.029,0,0,0,.125-1.5l-3.25-3.75A1.241,1.241,0,0,1,41.25,32l3.25,3.75a3.923,3.923,0,0,1,.875,2.625,3.263,3.263,0,0,1-1.25,2.5A4.818,4.818,0,0,1,41.875,41.625Z" fill="#bebfa8"/>
          </g>
          <g id="Group_288" data-name="Group 288">
            <path id="Path_219" data-name="Path 219" d="M38.125,44.5A3.14,3.14,0,0,1,35.5,43.25l-3-3.625A1.241,1.241,0,1,1,34.375,38l3,3.5a.756.756,0,0,0,.75.375,1.777,1.777,0,0,0,.75-.25,1.08,1.08,0,0,0,.375-.75,1.777,1.777,0,0,0-.25-.75L36,36.5a1.241,1.241,0,1,1,1.875-1.625l3,3.5A3.923,3.923,0,0,1,41.75,41a3.263,3.263,0,0,1-1.25,2.5,3.657,3.657,0,0,1-2.375,1Z" fill="#bebfa8"/>
          </g>
          <g id="Group_289" data-name="Group 289">
            <path id="Path_220" data-name="Path 220" d="M34,47h-.25a3.263,3.263,0,0,1-2.5-1.25l-1.625-1.875A1.241,1.241,0,0,1,31.5,42.25L33,44.125a.756.756,0,0,0,.75.375,1.777,1.777,0,0,0,.75-.25,1.08,1.08,0,0,0,.375-.75,1.777,1.777,0,0,0-.25-.75l-2.5-3A1.241,1.241,0,1,1,34,38.125l2.5,3a3.553,3.553,0,0,1-.375,5A2.8,2.8,0,0,1,34,47Z" fill="#bebfa8"/>
          </g>
          <g id="Group_290" data-name="Group 290">
            <path id="Path_221" data-name="Path 221" d="M18.25,36.375a3.545,3.545,0,0,1-2.75-1.25,3.376,3.376,0,0,1-.875-2.625,3.263,3.263,0,0,1,1.25-2.5L18.5,27.75a3.376,3.376,0,0,1,2.625-.875,3.263,3.263,0,0,1,2.5,1.25A3.376,3.376,0,0,1,24.5,30.75a3.263,3.263,0,0,1-1.25,2.5L20.625,35.5a3.3,3.3,0,0,1-2.375.875Zm2.625-7a1.777,1.777,0,0,0-.75.25L17.5,32a1.08,1.08,0,0,0-.375.75,1.34,1.34,0,0,0,.25.75,1.029,1.029,0,0,0,1.5.125l2.625-2.25a1.08,1.08,0,0,0,.375-.75,1.34,1.34,0,0,0-.25-.75.685.685,0,0,0-.75-.5Z" fill="#bebfa8"/>
          </g>
          <g id="Group_291" data-name="Group 291">
            <path id="Path_222" data-name="Path 222" d="M21.375,39.875h-.25a3.263,3.263,0,0,1-2.5-1.25A3.376,3.376,0,0,1,17.75,36,3.263,3.263,0,0,1,19,33.5l3.75-3.25a3.6,3.6,0,0,1,5.125.375,3.376,3.376,0,0,1,.875,2.625,3.263,3.263,0,0,1-1.25,2.5L23.75,39a3.3,3.3,0,0,1-2.375.875ZM25.125,32a1.777,1.777,0,0,0-.75.25l-3.75,3.25a1.08,1.08,0,0,0-.375.75,1.34,1.34,0,0,0,.25.75,1.426,1.426,0,0,0,.75.375,1.34,1.34,0,0,0,.75-.25l3.75-3.25a1.08,1.08,0,0,0,.375-.75,1.34,1.34,0,0,0-.25-.75A1.08,1.08,0,0,0,25.125,32Z" fill="#bebfa8"/>
          </g>
          <g id="Group_292" data-name="Group 292">
            <path id="Path_223" data-name="Path 223" d="M24.5,43.5h-.25a3.263,3.263,0,0,1-2.5-1.25,3.376,3.376,0,0,1-.875-2.625,3.263,3.263,0,0,1,1.25-2.5l2.625-2.25A3.376,3.376,0,0,1,27.375,34a3.263,3.263,0,0,1,2.5,1.25,3.714,3.714,0,0,1-.375,5.125l-2.625,2.25A3.946,3.946,0,0,1,24.5,43.5Zm2.625-7a1.777,1.777,0,0,0-.75.25L23.75,39a1.08,1.08,0,0,0-.375.75,1.34,1.34,0,0,0,.25.75,1.426,1.426,0,0,0,.75.375,1.34,1.34,0,0,0,.75-.25l2.625-2.25a1.029,1.029,0,0,0,.125-1.5.756.756,0,0,0-.75-.375Z" fill="#bebfa8"/>
          </g>
          <g id="Group_293" data-name="Group 293">
            <path id="Path_224" data-name="Path 224" d="M27.625,47a3.545,3.545,0,0,1-2.75-1.25,3.714,3.714,0,0,1,.375-5.125l.875-.75a3.553,3.553,0,0,1,5,.375A3.376,3.376,0,0,1,32,42.875a3.263,3.263,0,0,1-1.25,2.5L29.875,46A2.714,2.714,0,0,1,27.625,47Zm.875-5.375a1.777,1.777,0,0,0-.75.25l-.875.75a1.11,1.11,0,0,0,1.5,1.625l.875-.75a1.08,1.08,0,0,0,.375-.75,1.34,1.34,0,0,0-.25-.75,1.135,1.135,0,0,0-.875-.375Z" fill="#bebfa8"/>
          </g>
          <g id="Group_294" data-name="Group 294">
            <path id="Path_225" data-name="Path 225" d="M18.375,29.875a1.137,1.137,0,0,1-1-.5l-1.625-2-1.25-1.25a1.237,1.237,0,1,1,1.75-1.75L17.5,25.75l1.75,2.125a1.223,1.223,0,0,1-.25,1.75.955.955,0,0,1-.625.25Z" fill="#bebfa8"/>
          </g>
          <g id="Group_295" data-name="Group 295">
            <path id="Path_226" data-name="Path 226" d="M31.75,25.25h-.5a5.053,5.053,0,0,1-3.75-2.125,1.362,1.362,0,0,1,.25-1.75l7.625-6.25c.125-.125.25-.125.375-.25l6.125-2.125a1.266,1.266,0,0,1,.875,2.375L36.875,17.25,30.5,22.5c.375.125.625.25,1,.375a2.4,2.4,0,0,0,2.125-.75L35.5,20.5a1.314,1.314,0,0,1,1.625,0s3,2.375,5.375,1.25a1.231,1.231,0,1,1,1,2.25c-2.75,1.25-5.625-.125-7.125-1L35.25,24a5.973,5.973,0,0,1-3.5,1.25Z" fill="#bebfa8"/>
          </g>
          <g id="Group_296" data-name="Group 296">
            <path id="Path_227" data-name="Path 227" d="M45.875,33.375a.955.955,0,0,1-.625-.25,1.229,1.229,0,0,1-.375-1.75l2.25-3.5c.125-.125.125-.25.25-.25l2.5-2a1.25,1.25,0,1,1,1.5,2L49,29.5l-2.125,3.25A.99.99,0,0,1,45.875,33.375Z" fill="#bebfa8"/>
          </g>
          <g id="Group_297" data-name="Group 297">
            <path id="Path_228" data-name="Path 228" d="M51.875,29.125h-.25a1.265,1.265,0,0,1-.875-.5L40.375,13a1.362,1.362,0,0,1,.25-1.75l4.125-3a1.347,1.347,0,0,1,1-.25,1.265,1.265,0,0,1,.875.5L57,24.125a1.362,1.362,0,0,1-.25,1.75l-4.125,3A1.777,1.777,0,0,1,51.875,29.125Zm-8.625-16.5,9,13.5,2.125-1.5-9.125-13.5Z" fill="#bebfa8"/>
          </g>
        </g>
        <g id="Group_299" data-name="Group 299">
          <path id="Path_229" data-name="Path 229" d="M43,54.25H10.125a1.25,1.25,0,0,1,0-2.5H43A1.181,1.181,0,0,1,44.25,53,1.253,1.253,0,0,1,43,54.25Z" fill="#bebfa8"/>
        </g>
        <g id="Group_300" data-name="Group 300">
          <path id="Path_230" data-name="Path 230" d="M43,61H10.125a1.25,1.25,0,0,1,0-2.5H43a1.181,1.181,0,0,1,1.25,1.25A1.253,1.253,0,0,1,43,61Z" fill="#bebfa8"/>
        </g>
        <g id="Group_301" data-name="Group 301">
          <path id="Path_231" data-name="Path 231" d="M44.875,67.75H23.75a1.25,1.25,0,0,1,0-2.5H44.875a1.181,1.181,0,0,1,1.25,1.25A1.253,1.253,0,0,1,44.875,67.75Z" fill="#bebfa8"/>
        </g>
        <g id="Group_302" data-name="Group 302">
          <path id="Path_232" data-name="Path 232" d="M49.375,74.5H36.25a1.25,1.25,0,0,1,0-2.5H49.375a1.25,1.25,0,0,1,0,2.5Z" fill="#bebfa8"/>
        </g>
      </g>
      <g id="Group_307" data-name="Group 307">
        <g id="Group_305" data-name="Group 305">
          <g id="Group_304" data-name="Group 304">
            <path id="Path_233" data-name="Path 233" d="M64.125,74A26.315,26.315,0,0,1,61,73.75a1.355,1.355,0,0,1-1-1.375,1.956,1.956,0,0,0-.875-2.125c-.625-.25-1.375.125-2,1a1.185,1.185,0,0,1-1.625.25,14.76,14.76,0,0,1-4.875-4.75,1.185,1.185,0,0,1,.25-1.625A2.053,2.053,0,0,0,51.75,63c-.25-.625-1.125-.875-2.125-.75a1.239,1.239,0,0,1-1.375-1,15.913,15.913,0,0,1-.125-6.875,1.264,1.264,0,0,1,1.375-1,1.956,1.956,0,0,0,2.125-.875c.25-.625-.125-1.375-1-2a1.185,1.185,0,0,1-.25-1.625A14.76,14.76,0,0,1,55.125,44a1.185,1.185,0,0,1,1.625.25,2.053,2.053,0,0,0,2.125.875A2.127,2.127,0,0,0,59.625,43a1.239,1.239,0,0,1,1-1.375A15.913,15.913,0,0,1,67.5,41.5a1.355,1.355,0,0,1,1,1.375A1.956,1.956,0,0,0,69.375,45c.625.25,1.375-.125,2-1A1.185,1.185,0,0,1,73,43.75a16.083,16.083,0,0,1,4.875,4.75,1.185,1.185,0,0,1-.25,1.625,2.053,2.053,0,0,0-.875,2.125c.25.625,1.125.875,2.125.75a1.239,1.239,0,0,1,1.375,1,15.913,15.913,0,0,1,.125,6.875,1.264,1.264,0,0,1-1.375,1,1.956,1.956,0,0,0-2.125.875c-.25.625.125,1.375,1,2a1.185,1.185,0,0,1,.25,1.625,14.76,14.76,0,0,1-4.75,4.875A1.185,1.185,0,0,1,71.75,71a2.053,2.053,0,0,0-2.125-.875,2.127,2.127,0,0,0-.75,2.125,1.239,1.239,0,0,1-1,1.375A19.078,19.078,0,0,1,64.125,74ZM62.5,71.375a12.591,12.591,0,0,0,3.75-.125,3.756,3.756,0,0,1,6.375-2.75,13.7,13.7,0,0,0,2.625-2.75,3.967,3.967,0,0,1-.875-4.125,3.887,3.887,0,0,1,3.5-2.375,12.591,12.591,0,0,0-.125-3.75A3.756,3.756,0,0,1,75,49.125,13.7,13.7,0,0,0,72.25,46.5a3.967,3.967,0,0,1-4.125.875,3.887,3.887,0,0,1-2.375-3.5A12.591,12.591,0,0,0,62,44a3.756,3.756,0,0,1-6.375,2.75A13.7,13.7,0,0,0,53,49.5a3.967,3.967,0,0,1,.875,4.125A3.887,3.887,0,0,1,50.375,56a12.591,12.591,0,0,0,.125,3.75,3.756,3.756,0,0,1,2.75,6.375A13.7,13.7,0,0,0,56,68.75a3.967,3.967,0,0,1,4.125-.875A4.545,4.545,0,0,1,62.5,71.375Z" fill="#bebfa8"/>
          </g>
        </g>
        <g id="Group_306" data-name="Group 306">
          <path id="Path_234" data-name="Path 234" d="M64.125,65.125a7.375,7.375,0,0,1,0-14.75A7.471,7.471,0,0,1,71.5,57.75,7.388,7.388,0,0,1,64.125,65.125Zm0-12.375a4.881,4.881,0,0,0-4.875,4.875,4.875,4.875,0,0,0,9.75,0A4.881,4.881,0,0,0,64.125,52.75Z" fill="#bebfa8"/>
        </g>
      </g>
    </g>
  </g>
</svg>
