<svg xmlns="http://www.w3.org/2000/svg" xmlns:xlink="http://www.w3.org/1999/xlink" width="80" height="80" viewBox="0 0 80 80">
  <defs>
    <clipPath id="clip-path">
      <rect id="Rectangle_146" data-name="Rectangle 146" width="80" height="80" transform="translate(635 4321)" fill="#bebfa8"/>
    </clipPath>
  </defs>
  <g id="_2-1" data-name="2-1" transform="translate(-635 -4321)" clip-path="url(#clip-path)">
    <g id="list_14601377" transform="translate(629.286 4315.286)">
      <path id="Path_235" data-name="Path 235" d="M18.514,30H39.943a1.429,1.429,0,0,0,0-2.857H18.514a1.429,1.429,0,0,0,0,2.857Z" fill="#bebfa8"/>
      <path id="Path_236" data-name="Path 236" d="M52.9,40a1.428,1.428,0,0,0-1.429-1.429H18.514a1.429,1.429,0,0,0,0,2.857H51.472A1.428,1.428,0,0,0,52.9,40Z" fill="#bebfa8"/>
      <path id="Path_237" data-name="Path 237" d="M41.871,51.429A1.428,1.428,0,0,0,40.442,50H18.514a1.429,1.429,0,0,0,0,2.857H40.442a1.428,1.428,0,0,0,1.429-1.429Z" fill="#bebfa8"/>
      <path id="Path_238" data-name="Path 238" d="M18.514,64.286H35.943a1.429,1.429,0,0,0,0-2.857H18.514a1.429,1.429,0,0,0,0,2.857Z" fill="#bebfa8"/>
      <path id="Path_239" data-name="Path 239" d="M18.514,75.714H37.328a1.429,1.429,0,1,0,0-2.857H18.514a1.429,1.429,0,1,0,0,2.857Z" fill="#bebfa8"/>
      <path id="Path_240" data-name="Path 240" d="M44.443,82.857H18.514a4.29,4.29,0,0,1-4.286-4.286V12.857a4.29,4.29,0,0,1,4.286-4.286H45.657a2.863,2.863,0,0,1,2.857,2.857v7.143a7.151,7.151,0,0,0,7.143,7.143H62.8a2.863,2.863,0,0,1,2.857,2.857v13.9a1.429,1.429,0,1,0,2.857,0v-13.9a5.672,5.672,0,0,0-1.675-4.039L49.7,7.39a5.675,5.675,0,0,0-4.039-1.675H18.514a7.151,7.151,0,0,0-7.143,7.143V78.571a7.151,7.151,0,0,0,7.143,7.143H44.443a1.429,1.429,0,1,0,0-2.857Zm11.214-60a4.29,4.29,0,0,1-4.286-4.286V13.105l9.752,9.752Z" fill="#bebfa8"/>
      <path id="Path_241" data-name="Path 241" d="M60.057,45.714a20,20,0,1,0,20,20,20,20,0,0,0-20-20Zm15.8,13.354-6.816,2.221L61.486,55.8V48.644A17.172,17.172,0,0,1,75.858,59.068ZM64.275,71.283H55.84l-2.614-8.027,6.832-4.964,6.832,4.964Zm-5.646-22.64V55.8l-7.556,5.49-6.816-2.221A17.172,17.172,0,0,1,58.629,48.644ZM42.914,65.714a17.08,17.08,0,0,1,.471-3.924L50.5,64.108l2.775,8.521-4.4,6.046A17.1,17.1,0,0,1,42.914,65.714Zm8.269,14.639,4.525-6.213h8.7l4.525,6.213a16.981,16.981,0,0,1-17.749,0Zm20.062-1.679-4.4-6.046,2.775-8.521,7.113-2.318a16.979,16.979,0,0,1-5.485,16.884Z" fill="#bebfa8"/>
    </g>
  </g>
</svg>
