<svg xmlns="http://www.w3.org/2000/svg" xmlns:xlink="http://www.w3.org/1999/xlink" width="80" height="80" viewBox="0 0 80 80">
  <defs>
    <clipPath id="clip-path">
      <rect id="Rectangle_147" data-name="Rectangle 147" width="80" height="80" transform="translate(635 4457)" fill="#bebfa8"/>
    </clipPath>
  </defs>
  <g id="_2-2" data-name="2-2" transform="translate(-635 -4457)" clip-path="url(#clip-path)">
    <g id="evidence_13338218" transform="translate(633.75 4455.75)">
      <g id="Group_308" data-name="Group 308">
        <path id="Path_242" data-name="Path 242" d="M9.625,35.125a1.181,1.181,0,0,1-1.25-1.25V12.5a5.282,5.282,0,0,1,5.25-5.25,1.181,1.181,0,0,1,1.25,1.25,1.181,1.181,0,0,1-1.25,1.25,2.774,2.774,0,0,0-2.75,2.75V34A1.154,1.154,0,0,1,9.625,35.125Z" fill="#bebfa8"/>
      </g>
      <g id="Group_309" data-name="Group 309">
        <path id="Path_243" data-name="Path 243" d="M65.375,24.75a1.181,1.181,0,0,1-1.25-1.25V6.5A2.8,2.8,0,0,0,61.25,3.75h-42A2.774,2.774,0,0,0,16.5,6.5v.625H55.375a5.282,5.282,0,0,1,5.25,5.25v10a1.25,1.25,0,0,1-2.5,0v-10a2.774,2.774,0,0,0-2.75-2.75H15.25A1.181,1.181,0,0,1,14,8.375V6.5a5.282,5.282,0,0,1,5.25-5.25h42A5.282,5.282,0,0,1,66.5,6.5v17A1.088,1.088,0,0,1,65.375,24.75Z" fill="#bebfa8"/>
      </g>
      <g id="Group_315" data-name="Group 315">
        <g id="Group_310" data-name="Group 310">
          <path id="Path_244" data-name="Path 244" d="M67.625,42.125a.752.752,0,0,1-.5-.125,1.24,1.24,0,0,1-.625-1.625,11.781,11.781,0,0,0,1-6.875,1.1,1.1,0,0,1,.625-1.25l6-3.625L70.25,22.25l-5.875,3.5A1.12,1.12,0,0,1,63,25.625,12.121,12.121,0,0,0,44.5,40.25a1.231,1.231,0,1,1-2.25,1A14.592,14.592,0,0,1,63.875,23.125l6.25-3.75a1.346,1.346,0,0,1,1.75.375L77,28.25A1.346,1.346,0,0,1,76.625,30l-6.5,3.875A13.686,13.686,0,0,1,68.75,41.25,1.07,1.07,0,0,1,67.625,42.125Z" fill="#bebfa8"/>
        </g>
        <g id="Group_311" data-name="Group 311">
          <path id="Path_245" data-name="Path 245" d="M50.375,42.125a1.35,1.35,0,0,1-.875-.375,8.161,8.161,0,0,1-1.625-2A8.94,8.94,0,1,1,62,41.5a1.237,1.237,0,0,1-1.75-1.75,6.426,6.426,0,0,0,.875-7.875A6.474,6.474,0,1,0,50,38.5,13.24,13.24,0,0,0,51.25,40a1.339,1.339,0,0,1,.125,1.75A1.419,1.419,0,0,1,50.375,42.125Z" fill="#bebfa8"/>
        </g>
        <g id="Group_312" data-name="Group 312">
          <path id="Path_246" data-name="Path 246" d="M67.75,29.5a1.492,1.492,0,0,1-1.125-.625A1.346,1.346,0,0,1,67,27.125L69.75,25.5a1.266,1.266,0,1,1,1.375,2.125l-2.75,1.625C68.25,29.5,68,29.5,67.75,29.5Z" fill="#bebfa8"/>
        </g>
        <g id="Group_313" data-name="Group 313">
          <path id="Path_247" data-name="Path 247" d="M68.625,30.875A1.492,1.492,0,0,1,67.5,30.25L65.875,27.5A1.266,1.266,0,1,1,68,26.125l1.625,2.75a1.346,1.346,0,0,1-.375,1.75A.955.955,0,0,1,68.625,30.875Z" fill="#bebfa8"/>
        </g>
        <g id="Group_314" data-name="Group 314">
          <path id="Path_248" data-name="Path 248" d="M68.875,34.625H68.5L61.875,32.5a1.266,1.266,0,1,1,.875-2.375l6.625,2.125a1.251,1.251,0,0,1,.75,1.625A1.658,1.658,0,0,1,68.875,34.625Z" fill="#bebfa8"/>
        </g>
      </g>
      <g id="Group_316" data-name="Group 316">
        <path id="Path_249" data-name="Path 249" d="M71.875,81.25H10.625a6.535,6.535,0,0,1-6.5-6.5V39.125a6.535,6.535,0,0,1,6.5-6.5H28a1.135,1.135,0,0,1,.875.375L35,39.75l36.75-.125a5.942,5.942,0,0,1,4.5,1.875,6.419,6.419,0,0,1,1.875,4.625v28.75A6.142,6.142,0,0,1,71.875,81.25ZM10.625,35.125a4.028,4.028,0,0,0-4,4v35.75a4.028,4.028,0,0,0,4,4h61.25a4.028,4.028,0,0,0,4-4V46.125A3.841,3.841,0,0,0,72,42.25l-37.25.125A1.135,1.135,0,0,1,33.875,42L27.5,35.125Z" fill="#bebfa8"/>
      </g>
      <g id="Group_325" data-name="Group 325">
        <g id="Group_317" data-name="Group 317">
          <path id="Path_250" data-name="Path 250" d="M17.125,53.375A4.58,4.58,0,0,1,12.75,50.25a1.266,1.266,0,1,1,2.375-.875,2.112,2.112,0,0,0,4-.125,1.2,1.2,0,0,1,1.125-.875h8.5a1.25,1.25,0,1,1,0,2.5H21.125a4.506,4.506,0,0,1-4,2.5Z" fill="#bebfa8"/>
        </g>
        <g id="Group_318" data-name="Group 318">
          <path id="Path_251" data-name="Path 251" d="M47.375,53.375a4.777,4.777,0,0,1-4-2.25H35.75a1.25,1.25,0,0,1,0-2.5h8.375a1.2,1.2,0,0,1,1.125.875,2.268,2.268,0,0,0,2,1.5,2.139,2.139,0,0,0,2-1.5,1.266,1.266,0,1,1,2.375.875,4.212,4.212,0,0,1-4.25,3Z" fill="#bebfa8"/>
        </g>
        <g id="Group_319" data-name="Group 319">
          <path id="Path_252" data-name="Path 252" d="M38.375,76.75H26.125a1.181,1.181,0,0,1-1.25-1.25V71.625a3.494,3.494,0,0,1,3.5-3.5H36.25a3.494,3.494,0,0,1,3.5,3.5V75.5A1.469,1.469,0,0,1,38.375,76.75Zm-11-2.5h9.75V71.625a.986.986,0,0,0-1-1H28.25a.986.986,0,0,0-1,1V74.25Z" fill="#bebfa8"/>
        </g>
        <g id="Group_320" data-name="Group 320">
          <path id="Path_253" data-name="Path 253" d="M35.25,70.75h-6A1.181,1.181,0,0,1,28,69.5v-21a4.25,4.25,0,1,1,8.5,0V69.375A1.285,1.285,0,0,1,35.25,70.75Zm-4.75-2.5H34V48.625a1.75,1.75,0,1,0-3.5,0Z" fill="#bebfa8"/>
        </g>
        <g id="Group_321" data-name="Group 321">
          <path id="Path_254" data-name="Path 254" d="M43.625,61.875a.752.752,0,0,1-.5-.125,1.24,1.24,0,0,1-.625-1.625l4.125-8.5a1.2,1.2,0,0,1,1.125-.75,1.437,1.437,0,0,1,1.125.75L52.375,60a1.231,1.231,0,1,1-2.25,1L47.5,55.25l-2.75,6a1.492,1.492,0,0,1-1.125.625Z" fill="#bebfa8"/>
        </g>
        <g id="Group_322" data-name="Group 322">
          <path id="Path_255" data-name="Path 255" d="M47.375,67.375A6.4,6.4,0,0,1,41,61a1.181,1.181,0,0,1,1.25-1.25H52.375A1.181,1.181,0,0,1,53.625,61,6.3,6.3,0,0,1,47.375,67.375ZM43.75,62.25a3.815,3.815,0,0,0,7.25,0Z" fill="#bebfa8"/>
        </g>
        <g id="Group_323" data-name="Group 323">
          <path id="Path_256" data-name="Path 256" d="M13.5,61.875a.752.752,0,0,1-.5-.125,1.24,1.24,0,0,1-.625-1.625l4.125-8.5a1.2,1.2,0,0,1,1.125-.75,1.437,1.437,0,0,1,1.125.75L22.25,60A1.231,1.231,0,0,1,20,61l-2.5-5.75-2.875,6a1.492,1.492,0,0,1-1.125.625Z" fill="#bebfa8"/>
        </g>
        <g id="Group_324" data-name="Group 324">
          <path id="Path_257" data-name="Path 257" d="M17.25,67.375A6.4,6.4,0,0,1,10.875,61a1.181,1.181,0,0,1,1.25-1.25H22.25A1.181,1.181,0,0,1,23.5,61a6.3,6.3,0,0,1-6.25,6.375ZM13.625,62.25a3.815,3.815,0,0,0,7.25,0Z" fill="#bebfa8"/>
        </g>
      </g>
      <g id="Group_329" data-name="Group 329">
        <g id="Group_326" data-name="Group 326">
          <path id="Path_258" data-name="Path 258" d="M52,16.25H17.125a1.25,1.25,0,1,1,0-2.5H52A1.181,1.181,0,0,1,53.25,15,1.253,1.253,0,0,1,52,16.25Z" fill="#bebfa8"/>
        </g>
        <g id="Group_327" data-name="Group 327">
          <path id="Path_259" data-name="Path 259" d="M41.125,22.875h-24a1.25,1.25,0,0,1,0-2.5h24a1.25,1.25,0,0,1,0,2.5Z" fill="#bebfa8"/>
        </g>
        <g id="Group_328" data-name="Group 328">
          <path id="Path_260" data-name="Path 260" d="M30.5,29.5H17.125a1.25,1.25,0,0,1,0-2.5H30.5a1.25,1.25,0,0,1,0,2.5Z" fill="#bebfa8"/>
        </g>
      </g>
      <g id="Group_330" data-name="Group 330">
        <path id="Path_261" data-name="Path 261" d="M77.125,73H62.875a4.614,4.614,0,0,1-4.625-4.625V52.625A4.614,4.614,0,0,1,62.875,48h14.25a1.181,1.181,0,0,1,1.25,1.25v22.5A1.253,1.253,0,0,1,77.125,73ZM62.875,50.5a2.19,2.19,0,0,0-2.125,2.125v15.75A2.19,2.19,0,0,0,62.875,70.5h13v-20Z" fill="#bebfa8"/>
      </g>
    </g>
  </g>
</svg>
