<svg xmlns="http://www.w3.org/2000/svg" width="171" height="20.729" viewBox="0 0 171 20.729">
  <g id="about-icon" transform="translate(-870 -1177)">
    <line id="Line_9" data-name="Line 9" x1="60" transform="translate(981 1187.5)" fill="none" stroke="#bebfa8" stroke-width="1"/>
    <line id="Line_10" data-name="Line 10" x1="60" transform="translate(870 1187.5)" fill="none" stroke="#bebfa8" stroke-width="1"/>
    <g id="_1545698_compare_justice_law_match_scales_icon" data-name="1545698_compare_justice_law_match_scales_icon" transform="translate(927.5 1146)">
      <path id="XMLID_7_" d="M18.467,44.4,12.5,53.525s1.445,2.141,5.94,2.141" transform="translate(0 -9.814)" fill="none" stroke="#bebfa8" stroke-miterlimit="10" stroke-width="1"/>
      <path id="XMLID_6_" d="M34.8,52.077c4.522,0,5.94-2.141,5.94-2.141L34.8,40.811V39.5H53.371v1.311l5.94,9.125s-1.445,2.141-5.94,2.141" transform="translate(-16.333 -6.226)" fill="none" stroke="#bebfa8" stroke-miterlimit="10" stroke-width="1"/>
      <path id="XMLID_11_" d="M87.94,44.4,82,53.525s1.445,2.141,5.94,2.141" transform="translate(-50.903 -9.814)" fill="none" stroke="#bebfa8" stroke-miterlimit="10" stroke-width="1"/>
      <line id="XMLID_9_" y1="20.23" transform="translate(27.752 31)" fill="none" stroke="#bebfa8" stroke-miterlimit="10" stroke-width="1"/>
      <line id="XMLID_10_" x1="13.513" transform="translate(20.982 51.23)" fill="none" stroke="#bebfa8" stroke-miterlimit="10" stroke-width="1"/>
      <path id="XMLID_8_" d="M12.5,78.5H24.408S18.44,82.915,12.5,78.5Z" transform="translate(0 -34.79)" fill="#bebfa8" stroke="#bebfa8" stroke-miterlimit="10" stroke-width="1"/>
      <path id="XMLID_13_" d="M82,78.5H93.908S87.94,82.915,82,78.5Z" transform="translate(-50.903 -34.79)" fill="#bebfa8" stroke="#bebfa8" stroke-miterlimit="10" stroke-width="1"/>
    </g>
  </g>
</svg>
