<svg xmlns="http://www.w3.org/2000/svg" width="99" height="85.077" viewBox="0 0 99 85.077">
  <g id="footer-logo" transform="translate(-192.3 -241.229)">
    <g id="Letters" transform="translate(192.3 241.229)">
      <path id="Path_1" data-name="Path 1" d="M601.8,284.3h37.871l1.566,4.129H603.366Z" transform="translate(-543.499 -278.168)" fill="#bebfa8"/>
      <rect id="Rectangle_2" data-name="Rectangle 2" width="6.449" height="6.335" transform="translate(42.208 4.56) rotate(-45)" fill="#bebfa8"/>
      <path id="Path_2" data-name="Path 2" d="M275.571,272.8l4.556,4.556-4.556,4.556-4.271-4.556Z" transform="translate(-260.053 -268.305)" fill="#bebfa8"/>
      <path id="Path_3" data-name="Path 3" d="M211,272.8l4.556,4.556L211,281.912l-4.7-4.556Z" transform="translate(-204.307 -268.305)" fill="#bebfa8"/>
      <path id="Path_4" data-name="Path 4" d="M203.263,350.8,192.3,364.895l11.959,8.258C215.222,357.776,203.263,350.8,203.263,350.8Zm1.566,15.518-7.4-5.268,2.563-3.417c1.139-1.139,2.705,0,2.705,0C205.825,360.908,204.829,366.318,204.829,366.318Z" transform="translate(-192.3 -335.2)" fill="#bebfa8"/>
      <path id="Path_5" data-name="Path 5" d="M411.065,325.129h-24.63l-3.417,5.268s26.339.142,26.908.142,3.986-.427,6.264,7.261H387.147l-7.119-12.244-2.99,4.7,4.271,7.546-9.112.142a13.2,13.2,0,0,0,1.993-7.546,12.934,12.934,0,0,0-5.695-9.824s-.712-.285-1.424.712-9.4,13.383-9.4,13.383l4.413,3.132h-6.122s-.285-11.247-11.817-12.386c0,0-1.851-.427-1.851,1v16.942h9.539s.142,6.122-7.973,5.98l4.7,5.125a9.938,9.938,0,0,0,7.688-11.1h28.474l3.417,5.98,3.7-3.559-1.281-2.42h23.064l6.264-9.254S421.173,326.837,411.065,325.129ZM344.72,337.515v-5.552l.285-.427c6.407-.142,7.261,5.98,7.261,5.98Zm24.63-1.708-6.407-4.7,3.417-4.413h.427A7.253,7.253,0,0,1,369.35,335.807Z" transform="translate(-320.944 -309.245)" fill="#bebfa8"/>
      <path id="Path_6" data-name="Path 6" d="M863.286,509.8l-3.986,5.41v28.047l3.986-5.268Z" transform="translate(-764.339 -471.563)" fill="#bebfa8"/>
      <path id="Path_7" data-name="Path 7" d="M553.869,515.21v22.637h-5.837l2.278-3.559c.427-8.115-8.685-9.254-8.685-9.254h-7.119l-3.559,5.268,4.271,7.546h-9.966l2.278-3.7c.285-8.685-9.254-9.112-9.254-9.112H511.3v5.41l6.407.142c4.7.427,6.122,7.261,6.122,7.261H511.3v5.41h42.569l3.986-5.268V509.8ZM541.2,537.847l-4.414-7.4H541.2c3.844.854,5.41,7.4,5.41,7.4Z" transform="translate(-465.884 -471.563)" fill="#bebfa8"/>
      <path id="Path_8" data-name="Path 8" d="M548.743,548.8l1.566,4.129h-37.3L511.3,548.8Z" transform="translate(-465.884 -505.011)" fill="#bebfa8"/>
      <path id="Path_9" data-name="Path 9" d="M320.985,781.356l-4.129,4.271-4.556-4.556,4.413-4.271,4.271,4.129,4.271-4.129,4.556,4.413-4.556,4.414Z" transform="translate(-295.216 -700.55)" fill="#bebfa8"/>
      <path id="Path_10" data-name="Path 10" d="M203.856,526.8l-4.556,4.556,4.485,4.485,4.2-4.342,4.413,4.271,4.414-4.414L212.4,526.8l-4.271,4.271Z" transform="translate(-198.303 -486.143)" fill="#bebfa8"/>
      <path id="Path_11" data-name="Path 11" d="M239.027,515.352v22.495H233.9v-9.254l-5.41,3.559v5.695h-8.685V521.19l-3.986,5.41v1.424l-2.99-2.847c-7.119,1.851-9.254,8.685-9.254,8.685-.854,2.563,3.132,9.4,3.132,9.4h32.318l3.986-5.41V509.8Zm-23.206,22.495h-8.4c2.136-8.258,8.4-7.4,8.4-7.4Z" transform="translate(-201.869 -471.563)" fill="#bebfa8"/>
    </g>
    <g id="Slogan" transform="translate(238.2 319.899)">
      <path id="Path_12" data-name="Path 12" d="M516.038,804.7a1.505,1.505,0,0,1-.683-.142,1.189,1.189,0,0,1-.484-.384.993.993,0,0,1-.171-.57,1.729,1.729,0,0,1,.014-.256c.014-.1.028-.228.043-.356s.043-.256.057-.4.043-.256.057-.384l.441.071c-.029.214-.071.413-.085.6s-.043.327-.057.456a2.331,2.331,0,0,0-.014.285.668.668,0,0,0,.114.37.948.948,0,0,0,.313.256,1.256,1.256,0,0,0,.47.085,1.085,1.085,0,0,0,.456-.085.6.6,0,0,0,.285-.242.582.582,0,0,0,.1-.356v-2.434h.441v2.434a.932.932,0,0,1-.171.57,1.116,1.116,0,0,1-.47.37A2.331,2.331,0,0,1,516.038,804.7Zm-.242-3.545V800.7h.441v.456Z" transform="translate(-514.7 -799.718)" fill="#bebfa8"/>
      <path id="Path_13" data-name="Path 13" d="M537.811,807.345a3.245,3.245,0,0,1-.356-.029c-.128-.014-.256-.043-.4-.071l.071-.356c.171.014.3.029.413.043a2.109,2.109,0,0,0,.285.014.8.8,0,0,0,.541-.142.507.507,0,0,0,.171-.413V804.2l.171.114h-.74a.91.91,0,0,0-.384.057.357.357,0,0,0-.2.228,1.539,1.539,0,0,0-.057.5,1.392,1.392,0,0,0,.057.484.356.356,0,0,0,.2.228.951.951,0,0,0,.384.057h.555v.384h-.555a1.345,1.345,0,0,1-.641-.128.672.672,0,0,1-.327-.384,1.762,1.762,0,0,1-.1-.655,1.842,1.842,0,0,1,.1-.669.8.8,0,0,1,.327-.384,1.346,1.346,0,0,1,.641-.128h1v2.463a.867.867,0,0,1-.142.512.9.9,0,0,1-.4.327A1.085,1.085,0,0,1,537.811,807.345Z" transform="translate(-533.739 -802.462)" fill="#bebfa8"/>
      <path id="Path_14" data-name="Path 14" d="M552.67,807.6h-.128c-.043,0-.085-.014-.142-.014l.043-.384a.394.394,0,0,1,.128.014h.1a.433.433,0,0,0,.342-.157.679.679,0,0,0,.128-.441V804.2h.441v2.42a1.133,1.133,0,0,1-.114.513.851.851,0,0,1-.313.356A1.055,1.055,0,0,1,552.67,807.6Z" transform="translate(-547.033 -802.719)" fill="#bebfa8"/>
      <path id="Path_15" data-name="Path 15" d="M566,800.531V797.2h.441v3.332Zm.441,0v-.384H567v.384Zm.555,0v-.384a.052.052,0,0,1,.043.014c.014.014.029.028.029.043s.014.028.014.057v.157c0,.029-.014.043-.014.057s-.014.029-.029.043A.052.052,0,0,1,567,800.531Z" transform="translate(-558.696 -796.716)" fill="#bebfa8"/>
      <path id="Path_16" data-name="Path 16" d="M572.485,797.616a.052.052,0,0,1-.043-.014c-.014-.014-.029-.029-.029-.043s-.014-.043-.014-.057v-.185a.109.109,0,0,1,.028-.071.074.074,0,0,1,.057-.028Zm0,0v-.384h.683l-.114.114V795.75h.441v1.865Zm1.011,0v-.384h.484a.568.568,0,0,0,.242-.043c.057-.028.085-.1.114-.185a1.633,1.633,0,0,0,.029-.413v-1.068h.441v1.068a1.806,1.806,0,0,1-.085.612.57.57,0,0,1-.271.327.886.886,0,0,1-.47.1H573.5Zm.527-2.762V794.4h.427v.456Zm.37-.641V793.8h.4v.413Zm.626,3.4a.834.834,0,0,1-.327-.057,1.057,1.057,0,0,1-.313-.2l.271-.285a1.09,1.09,0,0,0,.185.128.379.379,0,0,0,.171.043h.84l-.185.185v-1.1a1.749,1.749,0,0,0-.014-.242q-.021-.15-.043-.342c-.014-.128-.043-.256-.071-.4l.427-.071c.029.114.043.242.071.37a3.583,3.583,0,0,1,.057.384,2.945,2.945,0,0,1,.029.3v1.3h-1.1Zm-.3-2.762V794.4h.427v.456Zm1.4,2.762v-.384h.5v.384Zm.5,0v-.384a.052.052,0,0,1,.043.014c.014.014.029.029.029.043s.014.028.014.057v.171c0,.028-.014.043-.014.057s-.014.029-.029.043Z" transform="translate(-564.185 -793.8)" fill="#bebfa8"/>
      <path id="Path_17" data-name="Path 17" d="M601.485,801.218a.052.052,0,0,1-.043-.014c-.014-.014-.029-.029-.029-.043s-.014-.043-.014-.057v-.185a.109.109,0,0,1,.028-.071.074.074,0,0,1,.057-.028Zm0,0v-.384h.8l-.228.171v-2.135h.441V801.2h-1.011Zm.228-2.762V798h.427v.456Zm.7,0V798h.427v.456Zm.085,2.762v-.384h.527v.384Zm.527,0v-.384a.053.053,0,0,1,.043.014c.014.014.029.029.029.043s.014.029.014.057v.157c0,.028-.014.043-.014.057s-.014.029-.029.043A.053.053,0,0,1,603.023,801.218Z" transform="translate(-589.056 -797.402)" fill="#bebfa8"/>
      <path id="Path_18" data-name="Path 18" d="M612.285,806.535a.052.052,0,0,1-.043-.014c-.014-.014-.029-.028-.029-.043s-.014-.043-.014-.057v-.185a.109.109,0,0,1,.028-.071.074.074,0,0,1,.057-.028Zm0,0v-.384h.683l-.114.114V804.67h.441v1.865Zm1.011,0v-.384h.484a.568.568,0,0,0,.242-.043c.057-.028.085-.1.114-.185a1.633,1.633,0,0,0,.029-.413v-1.068h.441v1.068a1.807,1.807,0,0,1-.085.612.57.57,0,0,1-.271.327.887.887,0,0,1-.47.1H613.3Zm1.523,0a.835.835,0,0,1-.327-.057,1.056,1.056,0,0,1-.313-.2l.271-.285a1.1,1.1,0,0,0,.185.128.379.379,0,0,0,.171.043h.84l-.185.185v-1.1a1.748,1.748,0,0,0-.014-.242q-.021-.15-.043-.342c-.014-.128-.043-.256-.071-.4l.427-.071c.028.114.043.242.071.37a3.566,3.566,0,0,1,.057.384,2.924,2.924,0,0,1,.029.3v1.3h-1.1Zm1.082,0v-.384h.5v.384Zm.513,0v-.384a.053.053,0,0,1,.043.014c.014.014.028.029.028.043s.014.028.014.057v.171c0,.028-.014.043-.014.057s-.014.028-.028.043Z" transform="translate(-598.319 -802.719)" fill="#bebfa8"/>
      <path id="Path_19" data-name="Path 19" d="M641.285,806.449a.052.052,0,0,1-.043-.014c-.014-.014-.028-.029-.028-.043s-.014-.043-.014-.057v-.185a.109.109,0,0,1,.029-.071.074.074,0,0,1,.057-.028Zm0,0v-.384h2.52l-.27.2V805.3a1.45,1.45,0,0,0-.071-.484.407.407,0,0,0-.242-.242,1.055,1.055,0,0,0-.456-.071,3.5,3.5,0,0,0-.384.029,1.15,1.15,0,0,0-.3.071l.27-.256c-.014.071-.043.157-.057.271s-.029.228-.043.356a5.2,5.2,0,0,0,0,.769c.014.128.029.228.043.328a.7.7,0,0,0,.043.185l-.413.114a1.36,1.36,0,0,1-.043-.214c-.014-.1-.028-.214-.043-.356s-.014-.285-.014-.441,0-.3.014-.441a3.36,3.36,0,0,1,.057-.4c.014-.114.043-.214.057-.285a2.076,2.076,0,0,1,.327-.085,2.755,2.755,0,0,1,.513-.043,1.821,1.821,0,0,1,.669.114.727.727,0,0,1,.4.37,1.608,1.608,0,0,1,.128.7v1.153h-2.705Z" transform="translate(-623.19 -802.634)" fill="#bebfa8"/>
      <path id="Path_20" data-name="Path 20" d="M686.811,807.345a3.245,3.245,0,0,1-.356-.029c-.128-.014-.256-.043-.4-.071l.071-.356c.171.014.3.029.413.043a2.109,2.109,0,0,0,.285.014.8.8,0,0,0,.541-.142.507.507,0,0,0,.171-.413V804.2l.171.114h-.74a.91.91,0,0,0-.384.057.357.357,0,0,0-.2.228,1.537,1.537,0,0,0-.057.5,1.39,1.39,0,0,0,.057.484.394.394,0,0,0,.2.228.95.95,0,0,0,.384.057h.555v.384h-.555a1.345,1.345,0,0,1-.641-.128.672.672,0,0,1-.327-.384,1.761,1.761,0,0,1-.1-.655,1.84,1.84,0,0,1,.1-.669.8.8,0,0,1,.327-.384,1.346,1.346,0,0,1,.641-.128h1v2.463a.867.867,0,0,1-.142.512.9.9,0,0,1-.4.327A1.551,1.551,0,0,1,686.811,807.345Z" transform="translate(-661.526 -802.462)" fill="#bebfa8"/>
      <path id="Path_21" data-name="Path 21" d="M727.038,804.7a1.506,1.506,0,0,1-.683-.142,1.19,1.19,0,0,1-.484-.384.962.962,0,0,1-.171-.57,1.729,1.729,0,0,1,.014-.256c.014-.1.028-.228.043-.356s.043-.256.057-.4.043-.256.057-.384l.441.071c-.028.214-.071.413-.085.6s-.043.327-.057.456a2.321,2.321,0,0,0-.014.285.668.668,0,0,0,.114.37.948.948,0,0,0,.313.256,1.256,1.256,0,0,0,.47.085,1.132,1.132,0,0,0,.456-.085.6.6,0,0,0,.285-.242.582.582,0,0,0,.1-.356v-2.434h.441v2.434a.932.932,0,0,1-.171.57,1.165,1.165,0,0,1-.456.37A2.531,2.531,0,0,1,727.038,804.7Zm-.242-3.545V800.7h.441v.456Z" transform="translate(-695.66 -799.718)" fill="#bebfa8"/>
      <path id="Path_22" data-name="Path 22" d="M748.811,807.345a3.245,3.245,0,0,1-.356-.029c-.128-.014-.256-.043-.4-.071l.071-.356c.171.014.3.029.413.043a2.109,2.109,0,0,0,.285.014.8.8,0,0,0,.541-.142.507.507,0,0,0,.171-.413V804.2l.171.114h-.74a.909.909,0,0,0-.384.057.357.357,0,0,0-.2.228,1.539,1.539,0,0,0-.057.5,1.392,1.392,0,0,0,.057.484.357.357,0,0,0,.2.228.95.95,0,0,0,.384.057h.555v.384h-.555a1.345,1.345,0,0,1-.641-.128.672.672,0,0,1-.327-.384,1.762,1.762,0,0,1-.1-.655,1.842,1.842,0,0,1,.1-.669.8.8,0,0,1,.327-.384,1.346,1.346,0,0,1,.641-.128h1v2.463a.867.867,0,0,1-.142.512.9.9,0,0,1-.4.327A1.55,1.55,0,0,1,748.811,807.345Zm1.153-1.068v-.384h.5v.384Zm.5,0v-.384a.052.052,0,0,1,.043.014c.014.014.028.028.028.043s.014.028.014.057v.171c0,.028-.014.043-.014.057s-.014.028-.028.043Z" transform="translate(-714.699 -802.462)" fill="#bebfa8"/>
      <path id="Path_23" data-name="Path 23" d="M765.385,806.449a.052.052,0,0,1-.043-.014c-.014-.014-.028-.029-.028-.043s-.014-.043-.014-.057v-.185a.109.109,0,0,1,.028-.071.074.074,0,0,1,.057-.028v.4Zm0,0v-.384h2.52l-.271.2V805.3a1.449,1.449,0,0,0-.071-.484.406.406,0,0,0-.242-.242,1.055,1.055,0,0,0-.456-.071,3.494,3.494,0,0,0-.384.029,1.151,1.151,0,0,0-.3.071l.271-.256c-.014.071-.043.157-.057.271s-.028.228-.043.356a5.2,5.2,0,0,0,0,.769c.014.128.028.228.043.328a.7.7,0,0,0,.043.185l-.413.114a1.369,1.369,0,0,1-.043-.214c-.014-.1-.029-.214-.043-.356s-.014-.285-.014-.441.014-.3.014-.441a3.335,3.335,0,0,1,.057-.4c.014-.114.043-.214.057-.285a2.077,2.077,0,0,1,.327-.085,2.756,2.756,0,0,1,.513-.043,1.82,1.82,0,0,1,.669.114.726.726,0,0,1,.4.37,1.606,1.606,0,0,1,.128.7v1.153h-2.705Z" transform="translate(-729.622 -802.634)" fill="#bebfa8"/>
      <path id="Path_24" data-name="Path 24" d="M790.2,800.531V797.2h.441v3.332Zm.441,0v-.384h.555v.384Zm.555,0v-.384a.052.052,0,0,1,.043.014c.014.014.029.028.029.043s.014.028.014.057v.157c0,.029-.014.043-.014.057s-.014.029-.029.043A.052.052,0,0,1,791.2,800.531Z" transform="translate(-750.977 -796.716)" fill="#bebfa8"/>
      <path id="Path_25" data-name="Path 25" d="M796.685,806.449a.052.052,0,0,1-.043-.014c-.014-.014-.028-.028-.028-.043s-.014-.043-.014-.057v-.185a.109.109,0,0,1,.029-.071.074.074,0,0,1,.057-.028Zm0,0v-.384h2.05l-.142.114V805.1a.514.514,0,0,0-.185-.441.905.905,0,0,0-.569-.157,3.136,3.136,0,0,0-.327.014c-.142.014-.3.028-.456.057l-.043-.356c.128-.028.271-.057.413-.085a2.367,2.367,0,0,1,.441-.029,1.643,1.643,0,0,1,.626.114.882.882,0,0,1,.413.342.93.93,0,0,1,.142.541v1.353Zm2.349,0v-.384h.5v.384Zm.5,0v-.384a.052.052,0,0,1,.043.014c.014.014.014.028.028.043s.014.028.014.057v.171c0,.029-.014.043-.014.057s-.014.029-.028.043Z" transform="translate(-756.466 -802.634)" fill="#bebfa8"/>
      <path id="Path_26" data-name="Path 26" d="M816.685,806.449a.052.052,0,0,1-.043-.014c-.014-.014-.028-.029-.028-.043s-.014-.043-.014-.057v-.185a.109.109,0,0,1,.029-.071.074.074,0,0,1,.057-.028Zm0,0v-.384h2.52l-.271.2V805.3a1.445,1.445,0,0,0-.071-.484.406.406,0,0,0-.242-.242,1.055,1.055,0,0,0-.456-.071,3.5,3.5,0,0,0-.385.029,1.149,1.149,0,0,0-.3.071l.27-.256c-.014.071-.043.157-.057.271s-.029.228-.043.356a5.179,5.179,0,0,0,0,.769c.014.128.028.228.043.328a.693.693,0,0,0,.043.185l-.413.114a1.363,1.363,0,0,1-.043-.214c-.014-.1-.028-.214-.043-.356s-.014-.285-.014-.441,0-.3.014-.441a3.322,3.322,0,0,1,.057-.4c.014-.114.043-.214.057-.285a2.077,2.077,0,0,1,.327-.085,2.756,2.756,0,0,1,.513-.043,1.82,1.82,0,0,1,.669.114.726.726,0,0,1,.4.37,1.606,1.606,0,0,1,.128.7v1.153h-2.705Z" transform="translate(-773.618 -802.634)" fill="#bebfa8"/>
    </g>
  </g>
</svg>
