<svg xmlns="http://www.w3.org/2000/svg" width="171" height="35" viewBox="0 0 171 35">
  <g id="judge-icon" transform="translate(-870 -1170)">
    <path id="courthouse-svgrepo-com" d="M27.865,28.544v-.678h1.087a.554.554,0,0,0,.494-.6V25.315h.56a.554.554,0,0,0,.494-.6V22.8a.629.629,0,0,0-.249-.519L15.5,12.079a.421.421,0,0,0-.49,0L.249,22.284A.629.629,0,0,0,0,22.8v1.913a.554.554,0,0,0,.494.6h.56v1.953a.554.554,0,0,0,.494.6H2.635v.678a1.3,1.3,0,0,0,.527,1.081V40.7H1.548a.554.554,0,0,0-.494.6v1.953H.494a.554.554,0,0,0-.494.6V46.4a.554.554,0,0,0,.494.6H30.006a.554.554,0,0,0,.494-.6V43.851a.554.554,0,0,0-.494-.6h-.56V41.3a.554.554,0,0,0-.494-.6H27.338V29.624A1.3,1.3,0,0,0,27.865,28.544Zm-.988,0a.037.037,0,0,1-.033.04H24.736a.037.037,0,0,1-.033-.04v-.678h2.174ZM22.068,40.7V29.624a1.3,1.3,0,0,0,.527-1.081v-.678h1.12v.678a1.3,1.3,0,0,0,.527,1.081V40.7Zm-2.108,0V29.779h1.12V40.7Zm-3.162,0V29.624a1.3,1.3,0,0,0,.527-1.081v-.678h1.12v.678a1.3,1.3,0,0,0,.527,1.081V40.7Zm-2.108,0V29.779h1.12V40.7Zm-3.162,0V29.624a1.3,1.3,0,0,0,.527-1.081v-.678h1.12v.678a1.3,1.3,0,0,0,.527,1.081V40.7Zm-2.108,0V29.779h1.12V40.7Zm-3.162,0V29.624a1.3,1.3,0,0,0,.527-1.081v-.678H7.9v.678a1.3,1.3,0,0,0,.527,1.081V40.7Zm4.809-12.836v.678a.037.037,0,0,1-.033.04H8.926a.037.037,0,0,1-.033-.04v-.678Zm5.27,0v.678a.037.037,0,0,1-.033.04H14.2a.037.037,0,0,1-.033-.04v-.678Zm5.27,0v.678a.037.037,0,0,1-.033.04H19.466a.037.037,0,0,1-.033-.04v-.678ZM.988,23.15,15.25,13.287,29.512,23.15v.969H.988Zm1.054,2.164H28.458V26.67H2.042ZM5.8,27.866v.678a.037.037,0,0,1-.033.04H3.656a.037.037,0,0,1-.033-.04v-.678ZM4.15,29.779H5.27V40.7H4.15ZM29.512,45.8H.988V44.449H29.512Zm-1.054-2.551H2.042V41.9H28.458ZM25.23,40.7V29.779h1.12V40.7Z" transform="translate(940.002 1158)" fill="#bebfa8"/>
    <line id="Line_9" data-name="Line 9" x1="60" transform="translate(981 1187.5)" fill="none" stroke="#bebfa8" stroke-width="1"/>
    <line id="Line_10" data-name="Line 10" x1="60" transform="translate(870 1187.5)" fill="none" stroke="#bebfa8" stroke-width="1"/>
  </g>
</svg>
