<svg xmlns="http://www.w3.org/2000/svg" width="171" height="20.269" viewBox="0 0 171 20.269">
  <g id="partner-icon" transform="translate(-870 -1177)">
    <line id="Line_9" data-name="Line 9" x1="60" transform="translate(981 1187.5)" fill="none" stroke="#bebfa8" stroke-width="1"/>
    <line id="Line_10" data-name="Line 10" x1="60" transform="translate(870 1187.5)" fill="none" stroke="#bebfa8" stroke-width="1"/>
    <path id="_7755377_hipster_lifestyle_friends_partner_handshake_icon" data-name="7755377_hipster_lifestyle_friends_partner_handshake_icon" d="M42.727,95.208H39.178a.406.406,0,0,0-.406.406v.623H35.113a40.945,40.945,0,0,0-5.989-2.175,6.6,6.6,0,0,0-1.682.012,9.759,9.759,0,0,1-4.922-.623,1.457,1.457,0,0,0-1.279.118,1.657,1.657,0,0,0-.8,1.2,3.8,3.8,0,0,0,.133,1.5H17.19v-.655a.406.406,0,0,0-.406-.406H13.236a.406.406,0,0,0-.406.406v12.645a.406.406,0,0,0,.406.406h3.548a.406.406,0,0,0,.406-.406V107.6a2.164,2.164,0,0,0,1.647.736,2.37,2.37,0,0,0,.368-.033,2.118,2.118,0,0,0,.5,1.184,2.16,2.16,0,0,0,1.651.74,2.385,2.385,0,0,0,.6-.087,2.1,2.1,0,0,0,.451.9,2.161,2.161,0,0,0,1.651.74,2.4,2.4,0,0,0,.985-.224,2.112,2.112,0,0,0,.436.815,2.155,2.155,0,0,0,1.644.736,2.43,2.43,0,0,0,1.141-.3l.365.293a2.316,2.316,0,0,0,1.443.516,2.107,2.107,0,0,0,.273-.017,2.061,2.061,0,0,0,1.406-.821,2.112,2.112,0,0,0,.34-.723,2.261,2.261,0,0,0,.909.075,2.056,2.056,0,0,0,1.4-.82,2.091,2.091,0,0,0,.361-.8,2.181,2.181,0,0,0,.636.012,2.059,2.059,0,0,0,1.406-.82,2.138,2.138,0,0,0,.418-1.194,2.212,2.212,0,0,0,.249-.017,2.049,2.049,0,0,0,1.294-.7v.457a.406.406,0,0,0,.406.406h3.548a.406.406,0,0,0,.406-.406V95.614A.406.406,0,0,0,42.727,95.208ZM19.537,106.7a.837.837,0,0,1-1.175.008.7.7,0,0,1-.157-.548.965.965,0,0,1,.343-.619l2.568-2.273a.975.975,0,0,1,.63-.244.681.681,0,0,1,.7.784.968.968,0,0,1-.343.619Zm2.454,1.823A.773.773,0,1,1,21,107.362l2.936-2.641a.976.976,0,0,1,.63-.244.706.706,0,0,1,.545.236.845.845,0,0,1-.187,1.171Zm2.7,1.558a.837.837,0,0,1-1.173.008.7.7,0,0,1-.158-.548.968.968,0,0,1,.341-.617l2.464-2.168a.972.972,0,0,1,.63-.244.681.681,0,0,1,.7.784.963.963,0,0,1-.341.617Zm4.222.239-1.151,1.092a.837.837,0,0,1-1.174.007.7.7,0,0,1-.157-.548.993.993,0,0,1,.361-.636l1.151-1.093a.975.975,0,0,1,.629-.244.685.685,0,0,1,.7.784.993.993,0,0,1-.361.633Zm1.665,1.6a.6.6,0,0,1-.417.241.836.836,0,0,1-.613-.187l-.131-.112.48-.456a2.467,2.467,0,0,0,.54-.664.715.715,0,0,0,.108.257.805.805,0,0,1,.033.918Zm7.129-5.1a.6.6,0,0,1-.415.241.841.841,0,0,1-.614-.187l-.265-.212a.732.732,0,0,0-.953,1.1.837.837,0,0,1,.18,1.085.606.606,0,0,1-.417.241.834.834,0,0,1-.614-.187l-.253-.2a.731.731,0,0,0-1.1.917.789.789,0,0,1-.018.837.6.6,0,0,1-.415.24.834.834,0,0,1-.616-.187l-.6-.483a.726.726,0,0,0-.913.007c.011-.057.03-.112.037-.17a2.152,2.152,0,0,0-.5-1.675,2.118,2.118,0,0,0-1.279-.7c0-.006,0-.011,0-.017a2.126,2.126,0,0,0-2.218-2.4,2.124,2.124,0,0,0-.506-1.3,2.226,2.226,0,0,0-2.441-.6,2.1,2.1,0,0,0-.453-.917,2.3,2.3,0,0,0-3.245-.138l-2.57,2.273a2.56,2.56,0,0,0-.326.342V97.729h4.2a3.776,3.776,0,0,0,1.184.851,9.926,9.926,0,0,0,3.954,1.1c.533.038.588.054.732.216a6.76,6.76,0,0,0,5.476,2.263c1.388,1.008,2.843,2.093,4.234,3.158l.535.374a.852.852,0,0,1,.2,1.118Zm1.067-2.2-4.868-3.6a1.905,1.905,0,0,0-.605-.252,1.981,1.981,0,0,0-.475-.068,1.462,1.462,0,0,0-.148,0c-.08.006-.181.009-.285.01h-.148c-.062,0-.125,0-.193-.007s-.151-.008-.233-.016l-.054-.007a5.544,5.544,0,0,1-.668-.116l-.082-.019c-.125-.032-.249-.069-.381-.112l-.074-.026a5.252,5.252,0,0,1-.847-.381,5.188,5.188,0,0,1-.766-.52h0a5.659,5.659,0,0,1-.6-.579,2.132,2.132,0,0,0-.3-.276c-.02-.016-.041-.032-.062-.046a1.741,1.741,0,0,0-.3-.172l-.038-.015a2,2,0,0,0-.3-.1l-.02,0a3.011,3.011,0,0,0-.342-.056h0c-.118-.013-.236-.022-.356-.031a7.537,7.537,0,0,1-2.305-.5c-.167-.062-.343-.129-.528-.206s-.389-.166-.6-.265a2.385,2.385,0,0,1-.436-.267c-.041-.031-.079-.062-.115-.1a2.129,2.129,0,0,1-.216-.215c-.032-.038-.068-.075-.1-.113a2.4,2.4,0,0,1-.436-1.606.228.228,0,0,1,.1-.144,11.18,11.18,0,0,0,5.58.718,5.643,5.643,0,0,1,1.308-.027,40.787,40.787,0,0,1,5.787,2.134l.141.062h3.935l.029,2.974Z" transform="translate(927.373 1083.645)" fill="#bebfa8"/>
  </g>
</svg>
