<svg xmlns="http://www.w3.org/2000/svg" xmlns:xlink="http://www.w3.org/1999/xlink" width="156.694" height="52.472" viewBox="0 0 156.694 52.472">
  <defs>
    <clipPath id="clip-path">
      <rect id="Rectangle_223" data-name="Rectangle 223" width="156.694" height="52.215" fill="#040809"/>
    </clipPath>
  </defs>
  <g id="partner-2" transform="translate(0 -0.001)">
    <g id="Group_774" data-name="Group 774" transform="translate(0 0.258)">
      <g id="Group_773" data-name="Group 773" clip-path="url(#clip-path)">
        <path id="Path_895" data-name="Path 895" d="M14.139,8.39,11.633,6.518,8.76,8.178l2.506,1.9Z" transform="translate(-2.026 -1.508)" fill="#040809"/>
        <path id="Path_896" data-name="Path 896" d="M115.395,13.695a12.6,12.6,0,0,0-2.994.341,7.945,7.945,0,0,0-2.422,1.012,5.057,5.057,0,0,0-1.621,1.669,4.523,4.523,0,0,0-.59,2.338,4.6,4.6,0,0,0,.582,2.354,5.138,5.138,0,0,0,1.544,1.67,7.063,7.063,0,0,0,2.192,1,9.555,9.555,0,0,0,2.51.331h2.746v.979H93.125V13.766H88.451V29.781a2.223,2.223,0,0,1-.715,1.735,2.809,2.809,0,0,1-1.956.649,4.872,4.872,0,0,1-1.22-.153,6.054,6.054,0,0,1-1.1-.391,6.143,6.143,0,0,1-.924-.533,6.424,6.424,0,0,1-.725-.582L80.5,32.165q.574.363,1.182.715A9.026,9.026,0,0,0,83,33.5a10.341,10.341,0,0,0,1.517.439,8.516,8.516,0,0,0,1.763.171,10.094,10.094,0,0,0,3-.4,6.169,6.169,0,0,0,2.137-1.11A4.532,4.532,0,0,0,92.7,30.92a5.234,5.234,0,0,0,.429-2.134V27.2h28.91V13.7Zm1.948,8.982h-1.527a3.168,3.168,0,0,1-1.394-.286,2.75,2.75,0,0,1-.98-.78,3.4,3.4,0,0,1-.582-1.136,4.707,4.707,0,0,1-.192-1.364,4.148,4.148,0,0,1,.258-1.516,3.31,3.31,0,0,1,.7-1.116,2.87,2.87,0,0,1,1.038-.7,3.471,3.471,0,0,1,1.287-.238h1.394Z" transform="translate(-18.621 -3.168)" fill="#040809"/>
        <path id="Path_897" data-name="Path 897" d="M14.284,20.279c0,6.394-2.371,8.186-4.687,8.186s-4.685-1.792-4.685-8.186V13.788H.695v7.794a8.62,8.62,0,0,0,8.9,8.874,8.613,8.613,0,0,0,8.876-8.874V13.788H14.284Z" transform="translate(-0.161 -3.189)" fill="#040809"/>
        <path id="Path_898" data-name="Path 898" d="M71.485,22.089V12.107l-4.189.745v7.983a7.08,7.08,0,0,1-.138,1.5,1.622,1.622,0,0,1-1.547,1.255H63.243V13.834l-4.191.747v9.007H54.873v-8l-4.189.746v7.255H34.041V6.519H29.367V25.536H66.579c2.923,0,4.906-1.213,4.906-3.447" transform="translate(-6.793 -1.508)" fill="#040809"/>
        <path id="Path_899" data-name="Path 899" d="M129.639,8.39l-2.506-1.872-2.873,1.66,2.506,1.9Z" transform="translate(-28.744 -1.508)" fill="#040809"/>
        <path id="Path_900" data-name="Path 900" d="M105.793,12.814l6.588-2.7h0a1.866,1.866,0,1,0-1.942-.324L105.4,11.854Z" transform="translate(-24.382 -1.508)" fill="#040809"/>
        <rect id="Rectangle_221" data-name="Rectangle 221" width="13.149" height="1.037" transform="translate(33.433 7.594) rotate(-11.51)" fill="#040809"/>
        <path id="Path_901" data-name="Path 901" d="M101.246,60.256h12.476V43.185H118.4V62.2H101.287" transform="translate(-23.421 -9.99)" fill="#040809"/>
        <rect id="Rectangle_222" data-name="Rectangle 222" width="4.674" height="19.019" transform="translate(98.394 33.196)" fill="#040809"/>
        <path id="Path_902" data-name="Path 902" d="M8.721,44.962,6.215,43.09,3.341,44.75l2.506,1.9Z" transform="translate(-0.773 -9.968)" fill="#040809"/>
        <path id="Path_903" data-name="Path 903" d="M15.442,44.962,12.937,43.09l-2.874,1.66,2.506,1.9Z" transform="translate(-2.328 -9.968)" fill="#040809"/>
        <path id="Path_904" data-name="Path 904" d="M74.433,44.962,71.927,43.09l-2.874,1.66,2.506,1.9Z" transform="translate(-15.974 -9.968)" fill="#040809"/>
        <path id="Path_905" data-name="Path 905" d="M81.155,44.962,78.649,43.09l-2.874,1.66,2.506,1.9Z" transform="translate(-17.529 -9.968)" fill="#040809"/>
        <path id="Path_906" data-name="Path 906" d="M0,63.838V61.882c0-4.838,0-11.635,10.329-11.635H14.9V63.838ZM10.329,52.206c-8.153,0-8.153,4.838-8.153,9.676h8.153Z" transform="translate(0 -11.623)" fill="#040809"/>
        <path id="Path_907" data-name="Path 907" d="M89.976,63.838V61.882c0-4.838,0-11.635,10.329-11.635h4.568V63.838ZM100.3,52.206c-8.153,0-8.153,4.838-8.153,9.676H100.3Z" transform="translate(-20.814 -11.623)" fill="#040809"/>
        <path id="Path_908" data-name="Path 908" d="M23.9,50.09c.3,0,3.335.006,3.619.018,5.544.245,8.042,2.756,8.042,8.077l-.1,5.561L22.653,63.8V61.828h8.225V58.317c0-5.172-.453-6.252-6.855-6.252Z" transform="translate(-5.24 -11.587)" fill="#040809"/>
        <path id="Path_909" data-name="Path 909" d="M41.928,50.09h4.923c1.012,0,2.592.008,2.793.017,5.544.245,8.042,2.756,8.042,8.077v5.6L37.563,63.8V61.828H53V58.317c0-4.943-.415-6.149-6.036-6.246l-4.916-.006Z" transform="translate(-8.689 -11.587)" fill="#040809"/>
        <path id="Path_910" data-name="Path 910" d="M83.706,61.752H74.8v-12.1l-4.189.746V61.752H60.627V63.7H83.706Z" transform="translate(-14.025 -11.486)" fill="#040809"/>
      </g>
    </g>
    <path id="Artboard_10" data-name="Artboard 10" d="M41.972,25.3a4.459,4.459,0,0,1-3.551,1.85,4.643,4.643,0,0,1-1.924-.5c-8.562-3.65-11.854-3.325-12.909-.782-3.244,7.862,15.521,9.949,14.994,26.6H.819A73.353,73.353,0,0,1,.738,31.224C3.086,16.472,10.936,6.934,21.952.146c.055-.036.113-.068.168-.1.023-.016.049-.029.071-.045A43.838,43.838,0,0,0,30.849,10.03l10.269,8.71a4.9,4.9,0,0,1,1.772,4.127,4.813,4.813,0,0,1-.915,2.432Z" transform="translate(113.787)" fill="#040809"/>
  </g>
</svg>
