<svg xmlns="http://www.w3.org/2000/svg" xmlns:xlink="http://www.w3.org/1999/xlink" width="80" height="80" viewBox="0 0 80 80">
  <defs>
    <clipPath id="clip-path">
      <rect id="Rectangle_116" data-name="Rectangle 116" width="80" height="80" transform="translate(1412 2539)" fill="#bebfa8"/>
    </clipPath>
  </defs>
  <g id="raw1-1" transform="translate(-1412 -2539)" clip-path="url(#clip-path)">
    <g id="svgviewer-output_23_" data-name="svgviewer-output (23)" transform="translate(1412 2539)">
      <path id="Path_70" data-name="Path 70" d="M80,40.505a1.2,1.2,0,0,0-.109-.479L73.208,25.7a3.763,3.763,0,0,0,4.045-3.671,3.675,3.675,0,0,0-3.67-3.671H70.759l-2.512-3.194A3.663,3.663,0,0,0,66,13.822L46.611,10.412v-.131A3.643,3.643,0,0,0,44,6.793V4.568a3.671,3.671,0,0,0-7.343,0V6.793a3.643,3.643,0,0,0-2.609,3.488v5.2L16.472,18.578a1.172,1.172,0,0,0-.718.43l-3.024,3.846a1.32,1.32,0,0,1-1.043.507H7.079a1.328,1.328,0,0,1,0-2.656h3.393a1.172,1.172,0,0,0,.921-.447l2.864-3.642a1.323,1.323,0,0,1,.813-.486L30,13.5A1.172,1.172,0,1,0,29.6,11.2L14.665,13.822a3.663,3.663,0,0,0-2.25,1.345L9.9,18.362H7.079a3.671,3.671,0,0,0-.272,7.332L.12,40.026a23.327,23.327,0,0,0-.11,3.488A5.5,5.5,0,0,0,5.5,49.005h6.28a5.5,5.5,0,0,0,5.492-5.492V40.521a1.223,1.223,0,0,0-.11-.5L10.481,25.7h1.205a3.65,3.65,0,0,0,2.885-1.4l2.748-3.494,17.452-3.071a3.649,3.649,0,0,0,1.889,1.318V41.741H24.6a3.1,3.1,0,0,0-3.1,3.1v26.1a3.084,3.084,0,0,0,.1.758H12.184a3.7,3.7,0,0,0,0,7.407H68.478a3.7,3.7,0,0,0,0-7.407H58.417a3.084,3.084,0,0,0,.1-.758V44.842a3.1,3.1,0,0,0-3.1-3.1h-7.1a1.172,1.172,0,0,0,0,2.343h7.1a.759.759,0,0,1,.758.758v26.1a.759.759,0,0,1-.758.758H24.6a.759.759,0,0,1-.758-.758v-26.1a.759.759,0,0,1,.758-.758H42.831A1.172,1.172,0,0,0,44,42.914V19.055a3.649,3.649,0,0,0,1.888-1.318l17.453,3.071,2.748,3.5a4.006,4.006,0,0,0,3.437,1.4L62.846,40.026a1.223,1.223,0,0,0-.11.5v2.993a5.5,5.5,0,0,0,5.492,5.492h6.28A5.5,5.5,0,0,0,80,43.514s0-2.93,0-3.009ZM14.93,43.514a3.152,3.152,0,0,1-3.148,3.148H5.5a3.152,3.152,0,0,1-3.148-3.148V41.693H14.93ZM3.021,39.35,8.641,27.3l5.62,12.046ZM68.478,74.038a1.36,1.36,0,0,1,0,2.72H12.184a1.36,1.36,0,1,1,0-2.72ZM40.331,3.242a1.327,1.327,0,0,1,1.328,1.326V6.644H39V4.568a1.329,1.329,0,0,1,1.328-1.326Zm-3.937,7.039a1.3,1.3,0,0,1,1.293-1.293h5.287a1.3,1.3,0,0,1,1.293,1.293v5.287a1.385,1.385,0,0,1-1.438,1.293h-5a1.376,1.376,0,0,1-1.439-1.293ZM39,19.2h2.656V41.741H39Zm28.929,3.65-3.023-3.846a1.172,1.172,0,0,0-.718-.43L46.611,15.485V12.791L65.593,16.13a1.324,1.324,0,0,1,.813.486l2.864,3.642a1.172,1.172,0,0,0,.921.447h3.393a1.329,1.329,0,0,1,1.326,1.328,1.373,1.373,0,0,1-1.326,1.328H68.976a1.324,1.324,0,0,1-1.044-.507Zm9.056,16.5H65.748L71.368,27.3Zm.668,4.164a3.152,3.152,0,0,1-3.148,3.148h-6.28a3.152,3.152,0,0,1-3.148-3.148V41.693H77.656v1.821Z" fill="#bebfa8"/>
      <path id="Path_71" data-name="Path 71" d="M47.017,55.729a1.172,1.172,0,0,0,1.657-1.657l-7.319-7.319A1.172,1.172,0,1,0,39.7,48.41l.757.757L33.983,55.64l-.757-.757a1.172,1.172,0,1,0-1.657,1.657l7.319,7.319A1.172,1.172,0,1,0,40.545,62.2l-.757-.757L42.2,59.037l6.954,6.954a1.172,1.172,0,1,0,1.657-1.657l-6.954-6.954,2.408-2.408Zm-8.887,4.059L35.639,57.3l6.473-6.473L44.6,53.316Z" fill="#bebfa8"/>
      <path id="Path_72" data-name="Path 72" d="M30.031,67.026a1.172,1.172,0,1,0,0,2.343H41.356a1.172,1.172,0,1,0,0-2.343Z" fill="#bebfa8"/>
    </g>
  </g>
</svg>
