<svg xmlns="http://www.w3.org/2000/svg" xmlns:xlink="http://www.w3.org/1999/xlink" width="80" height="80" viewBox="0 0 80 80">
  <defs>
    <clipPath id="clip-path">
      <rect id="Rectangle_118" data-name="Rectangle 118" width="80" height="80" transform="translate(777 2539)" fill="#bebfa8"/>
    </clipPath>
  </defs>
  <g id="raw1-3" transform="translate(-777 -2539)" clip-path="url(#clip-path)">
    <path id="svgviewer-output_33_" data-name="svgviewer-output (33)" d="M11.327,28.882A1.081,1.081,0,0,1,12.408,27.8H44.793a1.081,1.081,0,0,1,0,2.162H12.408a1.081,1.081,0,0,1-1.081-1.081Zm17.684,8.036h-16.6a1.081,1.081,0,0,0,0,2.162h16.6a1.081,1.081,0,1,0,0-2.162Zm0,9.117h-16.6a1.081,1.081,0,0,0,0,2.162h16.6a1.081,1.081,0,1,0,0-2.162Zm0,9.117h-16.6a1.081,1.081,0,0,0,0,2.162h16.6a1.081,1.081,0,1,0,0-2.162Zm50.5-.766a2.59,2.59,0,0,1-1.46,1.358L74.682,57a2.55,2.55,0,0,1-2.647-.519,3.6,3.6,0,0,1-.873,2.044,2.714,2.714,0,0,1-2.61.857A3.487,3.487,0,0,1,64.4,62.624a3.321,3.321,0,0,1-.914,2.129v3.086a7.05,7.05,0,0,1-6.807,7.035A7.054,7.054,0,0,1,49.906,80H7.295A7.055,7.055,0,0,1,.248,72.953V12.16a7.05,7.05,0,0,1,6.81-7.035A7.086,7.086,0,0,1,13.829,0H56.441a7.055,7.055,0,0,1,7.047,7.047V40.69l.424.176a6.111,6.111,0,0,0,2.288.673,2.591,2.591,0,0,1,1.632-2.989L71.2,37.3a2.611,2.611,0,0,1,3.351,1.536l5.036,13.557a2.591,2.591,0,0,1-.076,1.993ZM63.076,42.86c-2.036-.852-4.141-1.733-7.069.288a13.578,13.578,0,0,0-1.9,1.616c-.384.388-.778.776-1.163,1.154-.783.769-1.711,1.681-2.211,2.3,1.477,1.54,3.017,1.071,5.443.158,1.976-.744,4.212-1.587,6.192-.079.544.31,1.346.706,2.193,1.125a33.1,33.1,0,0,1,5.752,3.3L66.93,43.613a3.536,3.536,0,0,1-.77.093,8.258,8.258,0,0,1-3.085-.845ZM9.347,5.113H49.906a7.055,7.055,0,0,1,7.047,7.047V40.219a7.385,7.385,0,0,1,4.372-.253V7.047a4.89,4.89,0,0,0-4.885-4.885H13.829A4.916,4.916,0,0,0,9.347,5.113Zm25.1,12.436,5.831-3.931a1.081,1.081,0,0,1,1.209,0L46.7,17.133V7.275H34.442Zm20.349,55.4V70.309a2.869,2.869,0,0,1-.682.087,3.215,3.215,0,0,1-1.511-.39,3.906,3.906,0,0,1-1.73-1.931l-.066.02a3.359,3.359,0,0,1-2.575-.252,3.16,3.16,0,0,1-1.39-1.391,3.486,3.486,0,0,1-.471.181,3.359,3.359,0,0,1-2.575-.252,3.231,3.231,0,0,1-1.615-1.935,3.488,3.488,0,0,1-.144-1.42,3.365,3.365,0,0,1-1.451-.4,3.228,3.228,0,0,1-1.615-1.934,3.426,3.426,0,0,1,.228-2.642l.389-.727A2.473,2.473,0,0,1,38.1,57.3l-3.421-1.1A2.61,2.61,0,0,1,33,52.916l4.441-13.764a2.611,2.611,0,0,1,3.282-1.681l3.422,1.1A2.6,2.6,0,0,1,45.856,40.4a10.819,10.819,0,0,0,2.467-.3,9.135,9.135,0,0,1,6.469.493V12.16a4.89,4.89,0,0,0-4.885-4.885H48.859v11.89a1.081,1.081,0,0,1-1.686.9l-6.295-4.243-6.442,4.343a1.081,1.081,0,0,1-.6.185h-.47a1.081,1.081,0,0,1-1.081-1.081V7.275H7.295A4.89,4.89,0,0,0,2.41,12.16V72.953a4.89,4.89,0,0,0,4.885,4.885H49.906A4.89,4.89,0,0,0,54.791,72.953Zm3.2-8.169a3.37,3.37,0,0,1-.179,1.936l.11.057a.765.765,0,0,0,1.1-.344.971.971,0,0,0-.414-1.315Zm-1.07,3.91-.084-.044-.027.044Zm-3.486-3.416v0l-.557,1.042a1.446,1.446,0,0,0,.743,1.776c.205.111.835.446,1.408-.626l.405-.758v0c.766-1.434.545-1.641-.272-2.078a1.154,1.154,0,0,0-.918-.032,1.479,1.479,0,0,0-.808.675Zm-1.78-3.844a1.222,1.222,0,0,0-1.65.5l0,0-1.256,2.348h0a1.255,1.255,0,0,0-.074.966,1.119,1.119,0,0,0,.548.669,1.23,1.23,0,0,0,.954.1,1.212,1.212,0,0,0,.723-.589l.073-.137,0,0,.551-1.03,0-.006h0l.628-1.175a1.222,1.222,0,0,0-.5-1.652ZM48.5,59.407a1.216,1.216,0,0,0-2.24-.222l0,0-1.1,2.057-.845,1.579a1.256,1.256,0,0,0-.074.967,1.117,1.117,0,0,0,.548.67,1.229,1.229,0,0,0,1.677-.486l.379-.708,0,0L48.1,60.919v0l.31-.581a1.209,1.209,0,0,0,.09-.928Zm-4.369-3.535a1.228,1.228,0,0,0-1.6.527l-.462.864h0L41.1,59.072a1.256,1.256,0,0,0-.074.967,1.119,1.119,0,0,0,.548.669,1.226,1.226,0,0,0,1.675-.485l0-.005,1.1-2.054h0l.329-.614c.123-.231.5-.928-.553-1.677Zm-.366-14.68a.45.45,0,0,0-.286-.559l-3.422-1.1a.424.424,0,0,0-.133-.021.454.454,0,0,0-.205.05.443.443,0,0,0-.221.258L35.053,53.58a.451.451,0,0,0,.286.56l3.422,1.1a.447.447,0,0,0,.56-.286l.772-2.394c.028-.1.051-.193.082-.289.011-.033.027-.062.041-.093ZM61.325,67.839V65.857l-.024,0a3.165,3.165,0,0,1-.362,1.576,2.919,2.919,0,0,1-2.6,1.613,3.08,3.08,0,0,1-1.389-.34V72.7a4.892,4.892,0,0,0,4.372-4.858Zm8.327-12.731c-.74-1.125-3.932-2.7-6.045-3.746-.952-.47-1.774-.876-2.38-1.227a1.15,1.15,0,0,1-.129-.087c-.988-.781-2.223-.375-4.156.354-2.417.91-5.728,2.154-8.406-1.446A1.083,1.083,0,0,1,48.4,47.9c.36-.877,1.385-1.911,3.029-3.525.377-.371.764-.751,1.141-1.131q.461-.467.926-.874a7.307,7.307,0,0,0-4.756-.153,12.084,12.084,0,0,1-3.147.332L42.165,53.185a6.172,6.172,0,0,0-.177.82,3.418,3.418,0,0,1,.638-.265,3.348,3.348,0,0,1,2.575.252,1.068,1.068,0,0,1,.14.089A3.724,3.724,0,0,1,46.948,56.4a3.374,3.374,0,0,1,3.618,2.379,3.406,3.406,0,0,1,.092.377,3.362,3.362,0,0,1,3.616,2.266,1.08,1.08,0,0,1,1.4-.338l3.586,1.926a1.068,1.068,0,0,1,.181.075h0l.9.479a1.3,1.3,0,0,0,1.228-2.287h0a1.045,1.045,0,0,1-.1-.068l-4.142-2.215a1.081,1.081,0,0,1,1.019-1.906l4.25,2.273a1.067,1.067,0,0,1,.1.068l1.76.942a1.322,1.322,0,0,0,1.309-2.3l-5.837-3.168a1.081,1.081,0,0,1,1.032-1.9l5.712,3.1c.017.008.036.013.053.022l1.775.95c.712.379.976.094,1.075-.015a1.754,1.754,0,0,0,.086-1.955Zm7.91-1.964L72.526,39.587a.442.442,0,0,0-.232-.248.46.46,0,0,0-.188-.042.433.433,0,0,0-.151.027l-3.371,1.252a.448.448,0,0,0-.262.571l5.036,13.558a.442.442,0,0,0,.232.248.45.45,0,0,0,.339.014l3.37-1.252a.448.448,0,0,0,.263-.571Z" transform="translate(777 2539)" fill="#bebfa8"/>
  </g>
</svg>
