<svg xmlns="http://www.w3.org/2000/svg" xmlns:xlink="http://www.w3.org/1999/xlink" width="80" height="80" viewBox="0 0 80 80">
  <defs>
    <clipPath id="clip-path">
      <rect id="Rectangle_117" data-name="Rectangle 117" width="80" height="80" transform="translate(1094 2539)" fill="#bebfa8"/>
    </clipPath>
  </defs>
  <g id="raw1-2" transform="translate(-1094 -2539)" clip-path="url(#clip-path)">
    <path id="svgviewer-output_32_" data-name="svgviewer-output (32)" d="M72.041,72.313a4.8,4.8,0,0,1,4.018,4.717v3.611a1.168,1.168,0,0,1-1.165,1.165H15.375a1.168,1.168,0,0,1-1.165-1.165V38.185H10.366A1.168,1.168,0,0,1,9.2,37.02V24.072a6.487,6.487,0,0,1,6.464-6.464H56.181a6.487,6.487,0,0,1,6.464,6.464v3.8a6.594,6.594,0,0,1,4.368,2.931H88.037A1.168,1.168,0,0,1,89.2,31.973v4.834a1.168,1.168,0,0,1-1.165,1.165h-21.1A6.427,6.427,0,0,1,65.5,39.524V65.013h1.747a4.8,4.8,0,0,1,4.776,4.776v2.524ZM46.882,79.476V77.03a4.712,4.712,0,0,1,.155-1.184H20.966A1.168,1.168,0,0,1,19.8,74.681V26.207H16.52V79.476ZM48.435,73.5a4.838,4.838,0,0,1,2.465-1.2v-2.5a4.8,4.8,0,0,1,4.776-4.776h1.767V39.524a6.089,6.089,0,0,1-1.437-1.553H34.924a1.168,1.168,0,0,1-1.165-1.165V31.973a1.168,1.168,0,0,1,1.165-1.165H55.948a6.639,6.639,0,0,1,4.368-2.931v-3.8a4.123,4.123,0,0,0-4.387-4.116H20.616a6.44,6.44,0,0,1,1.495,4.135V73.516H48.435Zm22.849,1.068H51.677a2.461,2.461,0,0,0-2.446,2.446v2.446H73.749V77.01A2.49,2.49,0,0,0,71.284,74.564ZM59.772,65.013h3.4V38.923c0-1.126,1.107-.874,2-2.524a4.238,4.238,0,1,0-7.416,0c.912,1.67,2.019,1.4,2.019,2.524Zm7.493,2.33H55.7a2.461,2.461,0,0,0-2.446,2.446v2.446H69.731V69.789A2.49,2.49,0,0,0,67.265,67.343Zm8.5-17.025a1.162,1.162,0,0,1-2-1.184l5.863-9.823a1.157,1.157,0,0,1,2,.019l5.863,9.8a1.162,1.162,0,1,1-2,1.184l-4.873-8.153Zm-2.5,1.475H88.037A1.168,1.168,0,0,1,89.2,52.958v5.688A6.877,6.877,0,0,1,82.349,65.5H78.971a6.877,6.877,0,0,1-6.853-6.853V52.958a1.14,1.14,0,0,1,1.145-1.165Zm13.589,2.33H74.429v4.523a4.54,4.54,0,0,0,4.523,4.523H82.33a4.54,4.54,0,0,0,4.523-4.523Zm-49.425-3.8a1.162,1.162,0,0,1-2-1.184l5.863-9.823a1.157,1.157,0,0,1,2,.019l5.863,9.8a1.162,1.162,0,1,1-2,1.184l-4.873-8.153Zm-2.5,1.475H49.7a1.168,1.168,0,0,1,1.165,1.165v5.688A6.877,6.877,0,0,1,44.009,65.5H40.631a6.877,6.877,0,0,1-6.853-6.853V52.958A1.14,1.14,0,0,1,34.924,51.793Zm13.589,2.33H36.088v4.523a4.54,4.54,0,0,0,4.523,4.523h3.378a4.54,4.54,0,0,0,4.523-4.523Zm6.523-18.462a6.4,6.4,0,0,1-.019-2.5H36.088v2.5Zm12.89-2.524a6.394,6.394,0,0,1-.019,2.5H86.853v-2.5ZM14.191,35.875V25.042a1.168,1.168,0,0,1,1.165-1.165h4.426a4.128,4.128,0,0,0-8.25.214V35.875Z" transform="translate(1084.798 2529.294)" fill="#bebfa8"/>
  </g>
</svg>
