<svg xmlns="http://www.w3.org/2000/svg" xmlns:xlink="http://www.w3.org/1999/xlink" width="80" height="80" viewBox="0 0 80 80">
  <defs>
    <clipPath id="clip-path">
      <rect id="Rectangle_119" data-name="Rectangle 119" width="80" height="80" transform="translate(413 2539)" fill="#bebfa8"/>
    </clipPath>
  </defs>
  <g id="row1-4" transform="translate(-413 -2539)" clip-path="url(#clip-path)">
    <g id="svgviewer-output_34_" data-name="svgviewer-output (34)" transform="translate(413 2539)">
      <g id="Group_137" data-name="Group 137">
        <path id="Path_130" data-name="Path 130" d="M52.337,21.532H14.026a1.177,1.177,0,1,0,0,2.354H52.337a1.177,1.177,0,1,0,0-2.354Z" fill="#bebfa8"/>
        <path id="Path_131" data-name="Path 131" d="M14.026,15.722H33.181a1.177,1.177,0,0,0,0-2.354H14.026a1.177,1.177,0,1,0,0,2.354Z" fill="#bebfa8"/>
        <path id="Path_132" data-name="Path 132" d="M52.337,28.765H14.026a1.177,1.177,0,1,0,0,2.354H52.337a1.177,1.177,0,1,0,0-2.354Z" fill="#bebfa8"/>
        <path id="Path_133" data-name="Path 133" d="M22.753,71.823H10.492a3.654,3.654,0,0,1-3.65-3.65V6a3.654,3.654,0,0,1,3.65-3.65H45.814a2.518,2.518,0,0,1,.338.025v7.34a6.01,6.01,0,0,0,6,6h7.34a2.5,2.5,0,0,1,.025.338V36.1a1.177,1.177,0,0,0,2.354,0V16.06a4.8,4.8,0,0,0-1.416-3.418L49.231,1.416A4.8,4.8,0,0,0,45.814,0H10.492a6.01,6.01,0,0,0-6,6v62.17a6.01,6.01,0,0,0,6,6h12.26a1.177,1.177,0,1,0,0-2.354Zm35.1-58.455h-5.7a3.654,3.654,0,0,1-3.65-3.65v-5.7Z" fill="#bebfa8"/>
        <path id="Path_134" data-name="Path 134" d="M75.15,57.614,65.178,40.783a2.579,2.579,0,0,0-3.536-.905l-2.425,1.437a4.608,4.608,0,0,0-2.032,5.373,3.608,3.608,0,0,1-2.538-.028c-1.915-.6-3.371-1.815-5.775-1.206-4.083,1.04-3.959.987-4.328,1.114-2.391-1.361-3.828-1.766-6.365-.784l-2.262.875a3.619,3.619,0,0,1-3.169-.265l-.617-.364a4.6,4.6,0,0,0-2.194-4.714h0l-2.425-1.437a2.584,2.584,0,0,0-3.536.905L14,57.614a2.58,2.58,0,0,0,.905,3.536l2.425,1.437a4.572,4.572,0,0,0,2.337.642,4.632,4.632,0,0,0,2.514-.743l.505.3-1.067,1.486a3.943,3.943,0,0,0,3.818,6.2,3.94,3.94,0,0,0,4.5,3.232,3.944,3.944,0,0,0,5.444,2.96,3.942,3.942,0,0,0,6.7,1.108l2.836,1.68a3.952,3.952,0,0,0,5.933-2.925l.006,0a3.946,3.946,0,0,0,5.948-3.1,3.947,3.947,0,0,0,4.89-3.413,3.948,3.948,0,0,0,4.462-6.216l1.563-.913a4.591,4.591,0,0,0,4.1-.293l2.425-1.437a2.579,2.579,0,0,0,.906-3.536ZM18.531,60.562l-2.425-1.437a.228.228,0,0,1-.08-.311L26,41.982a.228.228,0,0,1,.312-.08l2.425,1.437a2.247,2.247,0,0,1,.788,3.079L21.61,59.774a2.25,2.25,0,0,1-3.079.788Zm5.366,7.3a1.592,1.592,0,0,1-.365-2.222L25.1,63.458a1.592,1.592,0,0,1,2.587,1.857L26.12,67.5A1.594,1.594,0,0,1,23.9,67.865Zm4.5,3.23a1.594,1.594,0,0,1-.365-2.222L29.6,66.688h0l1.731-2.411a1.582,1.582,0,0,1,1.035-.643,1.605,1.605,0,0,1,.261-.021,1.593,1.593,0,0,1,1.29,2.521l-3.3,4.6A1.591,1.591,0,0,1,28.4,71.1Zm4.5,3.23A1.594,1.594,0,0,1,32.53,72.1h0l3.3-4.6a1.592,1.592,0,1,1,2.587,1.857l-1.466,2.042h0l-1.834,2.554a1.594,1.594,0,0,1-2.222.365Zm5.235,2.2a1.594,1.594,0,0,1-.366-2.221l1.1-1.53a1.592,1.592,0,1,1,2.587,1.857l-1.1,1.528A1.594,1.594,0,0,1,38.131,76.53Zm26.378-9.383a1.6,1.6,0,0,1-2.182.559L51.91,61.534a1.177,1.177,0,0,0-1.2,2.025l7.875,4.666h0a1.593,1.593,0,0,1-1.624,2.742L49.082,66.3a1.177,1.177,0,0,0-1.2,2.025l5.8,3.438h0A1.593,1.593,0,0,1,52.061,74.5l-3.114-1.845h0L46.672,71.31a1.177,1.177,0,1,0-1.2,2.025l2.273,1.347h0a1.593,1.593,0,1,1-1.624,2.741L43.47,75.852a3.944,3.944,0,0,0-2.65-6.033,3.943,3.943,0,0,0-4.305-5.279,3.945,3.945,0,0,0-6.694-2.109,3.942,3.942,0,0,0-5.487-1.408l-.539-.318,7.4-12.494.352.208a5.959,5.959,0,0,0,5.215.433l2.262-.875a3.473,3.473,0,0,1,3.289.071,5.268,5.268,0,0,0-1.335,3.509v5.218a2.517,2.517,0,0,0,2.512,2.515h0a5.212,5.212,0,0,0,4.927-3.523l15.529,9.2a1.592,1.592,0,0,1,.558,2.182Zm8.536-8.022L70.62,60.562a2.25,2.25,0,0,1-3.078-.788l-3.709-6.26a1.177,1.177,0,1,0-2.025,1.2l3.709,6.26c.07.118.146.23.224.339l-1.031.6a5.967,5.967,0,0,0-.6.407L48.12,52.854a1.178,1.178,0,0,0-1.776,1.013,3.006,3.006,0,0,1-.835,2.236,2.831,2.831,0,0,1-2.014.834h0a.161.161,0,0,1-.16-.162V51.558a2.928,2.928,0,0,1,2.206-2.834l3.909-.989c1.418-.358,2.22.4,4.344,1.118a5.949,5.949,0,0,0,4.5-.072l.71,1.2a1.177,1.177,0,1,0,2.025-1.2l-1.4-2.361a2.246,2.246,0,0,1,.788-3.079L62.841,41.9a.227.227,0,0,1,.312.08l9.972,16.831a.227.227,0,0,1-.08.312Z" fill="#bebfa8"/>
      </g>
    </g>
  </g>
</svg>
