<svg xmlns="http://www.w3.org/2000/svg" xmlns:xlink="http://www.w3.org/1999/xlink" width="80" height="80" viewBox="0 0 80 80">
  <defs>
    <clipPath id="clip-path">
      <rect id="Rectangle_120" data-name="Rectangle 120" width="80" height="80" transform="translate(413 2777)" fill="#bebfa8"/>
    </clipPath>
  </defs>
  <g id="row2-4" transform="translate(-413 -2777)" clip-path="url(#clip-path)">
    <g id="svgviewer-output_28_" data-name="svgviewer-output (28)" transform="translate(413 2777)">
      <path id="Path_94" data-name="Path 94" d="M75.665,30.824A8.608,8.608,0,0,0,73.127,24.7l-2.436-2.436V12.141a7.179,7.179,0,0,0-5.237-6.9A7.125,7.125,0,0,0,58.55,0H11.5A7.176,7.176,0,0,0,4.335,7.168V62.887a7.127,7.127,0,0,0,5.233,6.9,7.114,7.114,0,0,0,4.98,4.974A7.178,7.178,0,0,0,21.45,80H68.5a7.175,7.175,0,0,0,7.167-7.167V33.692h0Zm-3.747-3.972a5.529,5.529,0,0,0-1.808-.3H63.888a4.829,4.829,0,0,1-4.823-4.823V15.5a5.529,5.529,0,0,0-.3-1.808,6.412,6.412,0,0,1,.5.447L71.469,26.354a6.425,6.425,0,0,1,.448.5Zm1.4,45.981A4.829,4.829,0,0,1,68.5,77.656H21.45a4.829,4.829,0,0,1-4.823-4.823v-6.68a1.172,1.172,0,1,0-2.344,0V72.16a4.8,4.8,0,0,1-2.63-4.3V12.141a4.829,4.829,0,0,1,4.823-4.823H54.76a1.172,1.172,0,0,0,0-2.344H16.477A7.175,7.175,0,0,0,9.31,12.141V67.188a4.8,4.8,0,0,1-2.63-4.3V7.168A4.829,4.829,0,0,1,11.5,2.344H58.55a4.8,4.8,0,0,1,4.3,2.63h-3.4a1.172,1.172,0,0,0,0,2.344h4.077a4.829,4.829,0,0,1,4.823,4.823v7.776l-7.432-7.432a8.608,8.608,0,0,0-6.127-2.538H21.45a7.175,7.175,0,0,0-7.167,7.167V61.466a1.172,1.172,0,1,0,2.344,0V17.114a4.829,4.829,0,0,1,4.823-4.823H53.519a3.216,3.216,0,0,1,3.2,3.212v6.222a7.175,7.175,0,0,0,7.167,7.167H70.11A3.215,3.215,0,0,1,73.321,32.1v40.73Z" fill="#bebfa8"/>
      <path id="Path_95" data-name="Path 95" d="M64.681,49.441H25.266a1.172,1.172,0,0,0,0,2.344H64.681a1.172,1.172,0,0,0,0-2.344Z" fill="#bebfa8"/>
      <path id="Path_96" data-name="Path 96" d="M64.681,56.712H25.266a1.172,1.172,0,1,0,0,2.344H64.681a1.172,1.172,0,0,0,0-2.344Z" fill="#bebfa8"/>
      <path id="Path_97" data-name="Path 97" d="M45.357,63.984H25.266a1.172,1.172,0,0,0,0,2.344h20.09a1.172,1.172,0,0,0,0-2.344Z" fill="#bebfa8"/>
      <path id="Path_98" data-name="Path 98" d="M25.508,30.206v12.58a1.172,1.172,0,0,0,1.172,1.172H44.974a1.172,1.172,0,0,0,1.172-1.172V30.206a2.755,2.755,0,0,0,3.272-1.618l.986-2.412a2.763,2.763,0,0,0-1.51-3.6l-11.53-4.714a4.039,4.039,0,0,0-3.075,0L22.76,22.577a2.763,2.763,0,0,0-1.51,3.6l.986,2.412a2.755,2.755,0,0,0,3.272,1.618Zm2.344,11.408V29.274l7.975-3.26,7.975,3.26V41.614H27.852ZM24.629,27.927a.414.414,0,0,1-.224-.226l-.986-2.412a.416.416,0,0,1,.228-.542l11.53-4.714a1.709,1.709,0,0,1,1.3,0l11.53,4.714a.416.416,0,0,1,.228.542L47.248,27.7a.416.416,0,0,1-.542.228L36.27,23.662a1.171,1.171,0,0,0-.887,0L24.947,27.929A.413.413,0,0,1,24.629,27.927Z" fill="#bebfa8"/>
      <path id="Path_99" data-name="Path 99" d="M40.355,29.682H31.3a1.172,1.172,0,0,0-1.172,1.172v6.977A1.172,1.172,0,0,0,31.3,39h9.058a1.172,1.172,0,0,0,1.172-1.172V30.854A1.172,1.172,0,0,0,40.355,29.682Zm-1.172,6.977H32.47V32.026h6.714Z" fill="#bebfa8"/>
    </g>
  </g>
</svg>
