<svg xmlns="http://www.w3.org/2000/svg" xmlns:xlink="http://www.w3.org/1999/xlink" width="80" height="80" viewBox="0 0 80 80">
  <defs>
    <clipPath id="clip-path">
      <rect id="Rectangle_123" data-name="Rectangle 123" width="80" height="80" transform="translate(1427 2777)" fill="#bebfa8"/>
    </clipPath>
  </defs>
  <g id="row2-1" transform="translate(-1427 -2777)" clip-path="url(#clip-path)">
    <g id="svgviewer-output_31_" data-name="svgviewer-output (31)" transform="translate(1427 2777)">
      <g id="Group_128" data-name="Group 128">
        <g id="Group_115" data-name="Group 115">
          <path id="Path_111" data-name="Path 111" d="M25.238,52.125a1.3,1.3,0,0,1-.575-.138l-3.087-1.562a1.284,1.284,0,0,1-.638-.737,1.316,1.316,0,0,1,.075-.975l6.55-12.925a1.281,1.281,0,0,1,1.712-.563l3.088,1.563a1.281,1.281,0,0,1,.563,1.713l-6.55,12.925a1.284,1.284,0,0,1-.738.637,1.115,1.115,0,0,1-.4.063Zm3.487-15.8L22.112,49.263l.025.063,3.087,1.563L31.837,37.95Z" fill="#bebfa8" stroke="#bebfa8" stroke-width="1"/>
        </g>
        <g id="Group_116" data-name="Group 116">
          <path id="Path_112" data-name="Path 112" d="M54.7,51.925a1.287,1.287,0,0,1-1.15-.725l-6.225-13a1.258,1.258,0,0,1-.05-.975,1.281,1.281,0,0,1,.65-.725L51.05,35a1.255,1.255,0,0,1,.975-.05,1.281,1.281,0,0,1,.725.65l6.225,13a1.258,1.258,0,0,1,.05.975,1.281,1.281,0,0,1-.65.725L55.25,51.787a1.235,1.235,0,0,1-.55.138ZM51.625,36.138,48.45,37.612l6.2,13.05,3.175-1.475a.1.1,0,0,0,.025-.062Z" fill="#bebfa8" stroke="#bebfa8" stroke-width="1"/>
        </g>
        <g id="Group_117" data-name="Group 117">
          <path id="Path_113" data-name="Path 113" d="M51.45,57.075a2.762,2.762,0,0,1-1.638-.538l-7.4-5.425a.618.618,0,0,1,.725-1l7.4,5.425a1.578,1.578,0,0,0,2.025-.2,1.537,1.537,0,0,0,.4-1.1,1.553,1.553,0,0,0-.5-1.062L42.287,43.988a3.731,3.731,0,0,0-1.812-.937,2.123,2.123,0,0,0-1.7.3,3.16,3.16,0,0,0-1.037,1.85A3.72,3.72,0,0,1,32.1,47.95a.981.981,0,0,1-.262-1.2,8.937,8.937,0,0,0,.725-3.25A5.1,5.1,0,0,1,34,40.288a8.731,8.731,0,0,1,.8-.738.273.273,0,0,1,.063-.037C39,36.063,43.687,37.525,46.5,38.4a7.052,7.052,0,0,0,2.025.475A.619.619,0,1,1,48.7,40.1a6.714,6.714,0,0,1-2.575-.525c-2.75-.862-6.9-2.15-10.525.913a.273.273,0,0,1-.062.037c-.225.188-.437.4-.65.613A3.832,3.832,0,0,0,33.8,43.575a10.167,10.167,0,0,1-.763,3.513,2.359,2.359,0,0,0,2.063-.075,2.281,2.281,0,0,0,1.4-1.937,4.31,4.31,0,0,1,1.537-2.737,3.316,3.316,0,0,1,2.638-.513A4.956,4.956,0,0,1,43.1,43.063L53.275,52.25a2.765,2.765,0,0,1,.187,3.925,2.7,2.7,0,0,1-2.013.9ZM32.962,47.3Z" fill="#bebfa8" stroke="#bebfa8" stroke-width="1"/>
        </g>
        <g id="Group_118" data-name="Group 118">
          <path id="Path_114" data-name="Path 114" d="M48.638,60.1a3.139,3.139,0,0,1-1.888-.65l-6.575-5.025a.615.615,0,0,1,.75-.975L47.5,58.463a1.757,1.757,0,0,0,1.663.313,1.393,1.393,0,0,0,.888-.888,1.7,1.7,0,0,0-.363-1.487.618.618,0,0,1,1-.725,2.911,2.911,0,0,1,.537,2.563A2.637,2.637,0,0,1,49.6,59.913a2.586,2.586,0,0,1-.962.188Z" fill="#bebfa8" stroke="#bebfa8" stroke-width="1"/>
        </g>
        <g id="Group_119" data-name="Group 119">
          <path id="Path_115" data-name="Path 115" d="M45.613,62.313a2.623,2.623,0,0,1-1.537-.5l-5.613-4a.618.618,0,1,1,.725-1l5.612,4a1.3,1.3,0,0,0,1.413.112,1.35,1.35,0,0,0,.613-.787,1.081,1.081,0,0,0-.2-.837.614.614,0,0,1,1.025-.675,2.329,2.329,0,0,1,.388,1.775,2.475,2.475,0,0,1-2.425,1.912Z" fill="#bebfa8" stroke="#bebfa8" stroke-width="1"/>
        </g>
        <g id="Group_120" data-name="Group 120">
          <path id="Path_116" data-name="Path 116" d="M27.487,57.525a2.71,2.71,0,0,1-2.712-2.7,2.715,2.715,0,0,1,.8-1.925l1.975-1.975a2.779,2.779,0,0,1,3.837,0,2.708,2.708,0,0,1,0,3.838l-1.975,1.975a2.768,2.768,0,0,1-1.925.788Zm1.975-6.163a1.5,1.5,0,0,0-1.05.438l-1.975,1.975A1.485,1.485,0,0,0,26,54.825a1.455,1.455,0,0,0,.438,1.05,1.494,1.494,0,0,0,2.1,0L30.513,53.9a1.494,1.494,0,0,0,0-2.1A1.446,1.446,0,0,0,29.462,51.362Z" fill="#bebfa8" stroke="#bebfa8" stroke-width="1"/>
        </g>
        <g id="Group_121" data-name="Group 121">
          <path id="Path_117" data-name="Path 117" d="M27.975,51.975a.586.586,0,0,1-.437-.188L26.05,50.262a.626.626,0,0,1,.013-.875.615.615,0,0,1,.875.012l1.487,1.525a.626.626,0,0,1-.013.875.647.647,0,0,1-.437.175Z" fill="#bebfa8" stroke="#bebfa8" stroke-width="1"/>
        </g>
        <g id="Group_122" data-name="Group 122">
          <path id="Path_118" data-name="Path 118" d="M30.563,60.3a2.63,2.63,0,0,1-1.112-.25,2.908,2.908,0,0,1-1.375-3.738.612.612,0,1,1,1.112.512,1.663,1.663,0,0,0,.787,2.1,1.555,1.555,0,0,0,1.775-.4l1.412-1.463a1.845,1.845,0,0,0,.487-1.45,1.468,1.468,0,0,0-.65-1.1,1.168,1.168,0,0,0-1.612.25.619.619,0,1,1-.9-.85,2.381,2.381,0,0,1,3.188-.437,2.712,2.712,0,0,1,1.188,2,3.065,3.065,0,0,1-.825,2.438l-1.412,1.462a2.844,2.844,0,0,1-2.062.925Z" fill="#bebfa8" stroke="#bebfa8" stroke-width="1"/>
        </g>
        <g id="Group_123" data-name="Group 123">
          <path id="Path_119" data-name="Path 119" d="M34.3,62.525a2.553,2.553,0,0,1-.95-.175A2.8,2.8,0,0,1,31.362,59a.613.613,0,0,1,1.175.35c-.213.738.287,1.5,1.237,1.85a1.582,1.582,0,0,0,1.787-.525l.912-1.125a1.562,1.562,0,0,0-.037-2.087,2.648,2.648,0,0,0-2.1-.4A.608.608,0,0,1,33.6,56.6a.616.616,0,0,1,.45-.737,3.835,3.835,0,0,1,3.225.7,2.768,2.768,0,0,1,.162,3.763l-.913,1.125A2.854,2.854,0,0,1,34.3,62.525Z" fill="#bebfa8" stroke="#bebfa8" stroke-width="1"/>
        </g>
        <g id="Group_124" data-name="Group 124">
          <path id="Path_120" data-name="Path 120" d="M37.45,63.888a2.3,2.3,0,0,1-1.3-.388,2.376,2.376,0,0,1-1.037-2.162.615.615,0,1,1,1.225.1,1.128,1.128,0,0,0,.5,1.05,1.254,1.254,0,0,0,1.563-.225l.575-.575a1.291,1.291,0,0,0,.275-1.475,1.582,1.582,0,0,0-1.7-.837.621.621,0,0,1-.712-.5.612.612,0,0,1,.487-.713,2.82,2.82,0,0,1,3.012,1.5,2.509,2.509,0,0,1-.512,2.888l-.575.575A2.529,2.529,0,0,1,37.45,63.888Z" fill="#bebfa8" stroke="#bebfa8" stroke-width="1"/>
        </g>
        <g id="Group_125" data-name="Group 125">
          <path id="Path_121" data-name="Path 121" d="M41.013,63.375A2.98,2.98,0,0,1,39,62.563a.62.62,0,0,1,.825-.925,1.679,1.679,0,0,0,1.65.425A2.1,2.1,0,0,0,42.75,60.4a.613.613,0,0,1,1.2.25,3.268,3.268,0,0,1-2.087,2.575,2.22,2.22,0,0,1-.85.15Z" fill="#bebfa8" stroke="#bebfa8" stroke-width="1"/>
        </g>
        <g id="Group_126" data-name="Group 126">
          <path id="Path_122" data-name="Path 122" d="M35.213,40.637h-.038l-3.625-.25a.618.618,0,0,1-.575-.663.635.635,0,0,1,.663-.575l3.625.25a.614.614,0,0,1,.575.65A.628.628,0,0,1,35.213,40.637Z" fill="#bebfa8" stroke="#bebfa8" stroke-width="1"/>
        </g>
        <g id="Group_127" data-name="Group 127">
          <path id="Path_123" data-name="Path 123" d="M52.388,52.9a.586.586,0,0,1-.437-.188.615.615,0,0,1,.013-.875,4.45,4.45,0,0,0,1.213-1.788.617.617,0,1,1,1.175.375,5.714,5.714,0,0,1-1.525,2.313.7.7,0,0,1-.437.162Z" fill="#bebfa8" stroke="#bebfa8" stroke-width="1"/>
        </g>
      </g>
      <g id="Group_132" data-name="Group 132">
        <g id="Group_129" data-name="Group 129">
          <path id="Path_124" data-name="Path 124" d="M14.5,31.663H.613A.613.613,0,0,1,0,31.05V9.95a7.55,7.55,0,0,1,15.1,0v21.1a.6.6,0,0,1-.6.613ZM1.225,30.438h12.65V9.95a6.325,6.325,0,0,0-12.65,0Z" fill="#bebfa8" stroke="#bebfa8" stroke-width="1"/>
        </g>
        <g id="Group_130" data-name="Group 130">
          <path id="Path_125" data-name="Path 125" d="M67.313,69.125a.613.613,0,0,1-.613-.613V8.337a4.716,4.716,0,0,0-4.713-4.713H7.55a.612.612,0,0,1,0-1.225H61.987a5.943,5.943,0,0,1,5.938,5.938V68.512a.6.6,0,0,1-.613.613Z" fill="#bebfa8" stroke="#bebfa8" stroke-width="1"/>
        </g>
        <g id="Group_131" data-name="Group 131">
          <path id="Path_126" data-name="Path 126" d="M74.775,77.6H21.5a7.618,7.618,0,0,1-7.612-7.613V31.05a.612.612,0,0,1,1.225,0V69.988a6.388,6.388,0,0,0,12.775,0V68.513A.613.613,0,0,1,28.5,67.9H79.388a.613.613,0,0,1,.612.613v3.875A5.22,5.22,0,0,1,74.775,77.6ZM25.65,76.375H74.788a3.99,3.99,0,0,0,3.987-3.987v-3.25H29.113V70A7.605,7.605,0,0,1,25.65,76.375Z" fill="#bebfa8" stroke="#bebfa8" stroke-width="1"/>
        </g>
      </g>
      <g id="Group_133" data-name="Group 133">
        <path id="Path_127" data-name="Path 127" d="M55.388,20.825H24.575a.613.613,0,1,1,0-1.225H55.388a.613.613,0,0,1,.613.612A.6.6,0,0,1,55.388,20.825Z" fill="#bebfa8" stroke="#bebfa8" stroke-width="1"/>
      </g>
      <g id="Group_136" data-name="Group 136">
        <g id="Group_134" data-name="Group 134">
          <path id="Path_128" data-name="Path 128" d="M55.388,13.85H24.575a.613.613,0,1,1,0-1.225H55.388a.613.613,0,0,1,.613.613A.6.6,0,0,1,55.388,13.85Z" fill="#bebfa8" stroke="#bebfa8" stroke-width="1"/>
        </g>
        <g id="Group_135" data-name="Group 135">
          <path id="Path_129" data-name="Path 129" d="M55.388,27.8H24.575a.612.612,0,1,1,0-1.225H55.388a.613.613,0,0,1,.613.612A.606.606,0,0,1,55.388,27.8Z" fill="#bebfa8" stroke="#bebfa8" stroke-width="1"/>
        </g>
      </g>
    </g>
  </g>
</svg>
