<svg xmlns="http://www.w3.org/2000/svg" xmlns:xlink="http://www.w3.org/1999/xlink" width="80" height="80" viewBox="0 0 80 80">
  <defs>
    <clipPath id="clip-path">
      <rect id="Rectangle_121" data-name="Rectangle 121" width="80" height="80" transform="translate(777 2777)" fill="#bebfa8"/>
    </clipPath>
  </defs>
  <g id="row2-3" transform="translate(-777 -2777)" clip-path="url(#clip-path)">
    <path id="svgviewer-output_29_" data-name="svgviewer-output (29)" d="M74.089,64.61,70.222,46.526a1.251,1.251,0,0,0-1.484-.962l-1.155.247V5.036A5.042,5.042,0,0,0,62.546,0H28.616a5.027,5.027,0,0,0-1.994.4,1.227,1.227,0,0,0-.191.086,5.061,5.061,0,0,0-1.38.986L13.887,12.637a5.053,5.053,0,0,0-1.037,1.487l-.014.033a4.988,4.988,0,0,0-.427,2.044v29.61l-1.155-.247a1.25,1.25,0,0,0-1.484.962L5.908,64.61a1.251,1.251,0,0,0,.962,1.484l5.539,1.186v7.676A5.048,5.048,0,0,0,17.451,80h45.1a5.045,5.045,0,0,0,5.037-5.042V67.28l5.544-1.186a1.249,1.249,0,0,0,.962-1.484ZM25.793,4.27v9.112H16.681ZM14.91,16.2a2.983,2.983,0,0,1,.019-.317H27.043a1.251,1.251,0,0,0,1.252-1.252V2.52a2.691,2.691,0,0,1,.32-.02h33.93A2.539,2.539,0,0,1,65.08,5.036V46.343L60,47.428h0l-3.74.8c-6.522-3.814-13.7-4.87-21.935-3.226a.73.73,0,0,0-.078.022A87.491,87.491,0,0,0,25.8,47.361c-.864.27-1.686.528-2.511.778l-3.3-.708h0l-5.083-1.084V16.2Zm30.2,56.985a3.832,3.832,0,0,0-4.033-3.722,3.842,3.842,0,0,0-5-3.184,3.838,3.838,0,0,0-6.131-1.908,3.84,3.84,0,0,0-6.122-1.506l-3.406,3a3.789,3.789,0,0,0-.427.442c-.745-.22-1.723-.481-2.62-.648L20.693,50.14l2.384.512a1.239,1.239,0,0,0,.262.028,1.262,1.262,0,0,0,.358-.052c.944-.281,1.912-.586,2.85-.88,1.18-.37,2.378-.744,3.594-1.1l-3.22,3c-1.525,1.409-2.156,2.714-1.878,3.878a2.494,2.494,0,0,0,1.922,1.8c2.308.653,6.423-.4,9.862-3.226C39.394,57.921,43.4,59.94,47.3,61.9c3.191,1.6,6.476,3.262,8.929,5.912a33.235,33.235,0,0,1-11.115,5.376Zm-23.032-5.44,3.406-3a1.313,1.313,0,0,1,.877-.331c.028,0,.058,0,.087,0a1.336,1.336,0,0,1,.8,2.331l-3.409,3,0,0a1.334,1.334,0,1,1-1.762-2Zm5.575,2.508a1.32,1.32,0,0,1,.448-.919l3.408-3A1.324,1.324,0,0,1,32.391,66c.028,0,.058,0,.087,0a1.313,1.313,0,0,1,.914.445,1.343,1.343,0,0,1-.119,1.889l-3.406,3,0,0a1.334,1.334,0,0,1-2.212-1.086Zm4.881,2.6a1.32,1.32,0,0,1,.448-.919l3.406-3a1.313,1.313,0,0,1,.877-.331c.028,0,.058,0,.087,0a1.316,1.316,0,0,1,.919.45,1.331,1.331,0,0,1,.33.969,1.311,1.311,0,0,1-.425.894l-.384.341a.187.187,0,0,1-.019.017l-3.026,2.664,0,0a1.331,1.331,0,0,1-2.211-1.084Zm6.9.286.37-.327.041-.037.541-.477a1.326,1.326,0,0,1,.881-.333,1.335,1.335,0,0,1,.883,2.339l-.937.831a1.337,1.337,0,0,1-1.778-2Zm19.113-6.481c-2.808-3.308-6.526-5.179-10.131-6.992-4.164-2.1-8.1-4.073-10.195-8.082a1.252,1.252,0,0,0-1.992-.306,13.5,13.5,0,0,1-5.65,3.4,5.289,5.289,0,0,1-3.076.214,4.028,4.028,0,0,1,1.114-1.4l6.536-6.1C42.783,45.936,49.4,47,55.39,50.623a1.249,1.249,0,0,0,.911.153l3-.642,3.344,15.64Zm-46.6-18.381,6.29,1.342L14.9,65.255l-.942-.2c-.028-.006-.055-.012-.083-.017L8.617,63.91ZM14.91,74.956v-7.14l.692.148h0c.039.008.08.014.119.019l.009,0a1.191,1.191,0,0,0,.131.006,15.859,15.859,0,0,1,3.261.672,3.829,3.829,0,0,0,3.592,3.912c.083,0,.166.008.247.008A3.8,3.8,0,0,0,25.4,71.7a3.839,3.839,0,0,0,3.345,2.459c.083,0,.166.008.247.008a3.8,3.8,0,0,0,1.181-.191,3.839,3.839,0,0,0,3.451,2.778c.083,0,.166.008.247.008a3.8,3.8,0,0,0,2.53-.956l.345-.3A3.84,3.84,0,0,0,38.484,77.5H17.451a2.541,2.541,0,0,1-2.541-2.539Zm50.171,0A2.542,2.542,0,0,1,62.546,77.5H42.169a3.874,3.874,0,0,0,.706-.487l.939-.833c.083-.073.161-.15.237-.228,4.5-.719,9.262-2.93,14.532-6.74l5.806-1.242.692-.148Zm.008-9.7-3.344-15.64,6.29-1.342L71.38,63.91ZM41.989,17.77A1.251,1.251,0,1,1,44.3,16.8a2.994,2.994,0,0,0,1.884,1.833,2.671,2.671,0,0,0,2.191-.253,1.322,1.322,0,0,0,.606-.958,1.074,1.074,0,0,0-.361-.9A4.43,4.43,0,0,0,46.9,15.91a6.877,6.877,0,0,1-3.528-1.633,3.792,3.792,0,0,1,1.609-6.2c.148-.05.3-.092.453-.13V6.658a1.252,1.252,0,0,1,2.5,0V7.9a4.884,4.884,0,0,1,1.367.492,3.914,3.914,0,0,1,1.975,2.55,1.251,1.251,0,1,1-2.43.6,1.445,1.445,0,0,0-.748-.956,3.075,3.075,0,0,0-2.317-.139,1.282,1.282,0,0,0-.894.933,1.252,1.252,0,0,0,.273,1.147,4.833,4.833,0,0,0,2.312.944,5.849,5.849,0,0,1,2.883,1.258,3.559,3.559,0,0,1,1.106,2.933,3.845,3.845,0,0,1-1.73,2.814,4.836,4.836,0,0,1-1.8.7v1.211a1.252,1.252,0,0,1-2.5,0V21.024a5.515,5.515,0,0,1-3.45-3.255ZM19.712,28.013a1.251,1.251,0,0,1,1.252-1.252H59.035a1.252,1.252,0,1,1,0,2.5H20.963A1.25,1.25,0,0,1,19.712,28.013Zm0,10.156a1.251,1.251,0,0,1,1.252-1.252H59.035a1.252,1.252,0,1,1,0,2.5H20.963A1.25,1.25,0,0,1,19.712,38.169Z" transform="translate(777.001 2777.001)" fill="#bebfa8"/>
  </g>
</svg>
