<svg xmlns="http://www.w3.org/2000/svg" xmlns:xlink="http://www.w3.org/1999/xlink" width="80" height="80" viewBox="0 0 80 80">
  <defs>
    <clipPath id="clip-path">
      <rect id="Rectangle_122" data-name="Rectangle 122" width="80" height="80" transform="translate(1094 2777)" fill="#bebfa8"/>
    </clipPath>
  </defs>
  <g id="row2-2" transform="translate(-1094 -2777)" clip-path="url(#clip-path)">
    <g id="Layer_32" data-name="Layer 32" transform="translate(1092.71 2775.71)">
      <path id="Path_100" data-name="Path 100" d="M40,9.032H60.645v2.581H40Z" fill="#bebfa8"/>
      <path id="Path_101" data-name="Path 101" d="M15.484,24.516h12.9a1.29,1.29,0,0,0,1.29-1.29V7.742a1.29,1.29,0,0,0-1.29-1.29h-12.9a1.29,1.29,0,0,0-1.29,1.29V23.226A1.29,1.29,0,0,0,15.484,24.516Zm1.29-15.484H27.1v12.9H16.774Z" fill="#bebfa8"/>
      <path id="Path_102" data-name="Path 102" d="M32.258,14.194H60.645v2.581H32.258Z" fill="#bebfa8"/>
      <path id="Path_103" data-name="Path 103" d="M32.258,19.355H60.645v2.581H32.258Z" fill="#bebfa8"/>
      <path id="Path_104" data-name="Path 104" d="M37.419,24.516H60.645V27.1H37.419Z" fill="#bebfa8"/>
      <path id="Path_105" data-name="Path 105" d="M14.194,34.839H47.742v2.581H14.194Z" fill="#bebfa8"/>
      <path id="Path_106" data-name="Path 106" d="M14.194,40H37.418v2.581H14.194Z" fill="#bebfa8"/>
      <path id="Path_107" data-name="Path 107" d="M14.194,45.161H45.161v2.581H14.194Z" fill="#bebfa8"/>
      <path id="Path_108" data-name="Path 108" d="M14.194,50.323H40V52.9H14.194Z" fill="#bebfa8"/>
      <path id="Path_109" data-name="Path 109" d="M5.161,81.29H77.419A1.29,1.29,0,0,0,78.71,80V70.968A7.89,7.89,0,0,0,72.725,63.3l-4.338-1.085V60.3a9.053,9.053,0,0,0,3.49-4.821H72.91a4.51,4.51,0,0,0,3.219-7.667V42.785a6.941,6.941,0,0,0-4.164-6.368,6.933,6.933,0,0,0-6.159-4.143V2.581a1.29,1.29,0,0,0-1.29-1.29H10.323a1.29,1.29,0,0,0-1.29,1.29V6.452H5.161a1.29,1.29,0,0,0-1.29,1.29V80A1.29,1.29,0,0,0,5.161,81.29ZM76.129,70.968V78.71H73.548V74.839H70.968V78.71H55.484V74.839H52.9V78.71H50.323V70.968a5.312,5.312,0,0,1,4.03-5.161l2.121-.53a7.381,7.381,0,0,0,13.5,0l2.121.53a5.312,5.312,0,0,1,4.03,5.161Zm-9.346-6.49.622.156a4.774,4.774,0,0,1-8.359,0l.622-.156a1.29,1.29,0,0,0,.977-1.252V61.548a8.938,8.938,0,0,0,5.161,0v1.677a1.29,1.29,0,0,0,.977,1.252ZM69.677,52.9a6.452,6.452,0,0,1-12.9,0V47.742h2.267a14.4,14.4,0,0,0,9.783-3.795,1.29,1.29,0,0,1,.853,1.214Zm3.226,0h-.645V49.032H72.9a1.935,1.935,0,1,1,0,3.871Zm-3.16-15.076a1.29,1.29,0,0,0,.817.817,4.365,4.365,0,0,1,2.988,4.146v3.728a4.443,4.443,0,0,0-.645-.066h-.645v-1.29a3.871,3.871,0,0,0-3.871-3.871,1.29,1.29,0,0,0-.912.378,11.848,11.848,0,0,1-8.434,3.493H55.484a1.29,1.29,0,0,0-1.29,1.29h-.645a4.443,4.443,0,0,0-.645.066V42.581a7.75,7.75,0,0,1,7.742-7.742H65.6A4.365,4.365,0,0,1,69.743,37.827ZM53.548,49.032h.645V52.9h-.645a1.935,1.935,0,1,1,0-3.871ZM11.613,3.871H63.226V32.258H60.645A10.334,10.334,0,0,0,50.323,42.581v5.236a4.51,4.51,0,0,0,3.226,7.667h1.032A9.053,9.053,0,0,0,58.065,60.3v1.914L53.726,63.3a7.89,7.89,0,0,0-5.985,7.665v2.581H11.613ZM6.452,9.032H9.032V74.839a1.29,1.29,0,0,0,1.29,1.29H47.742V78.71H6.452Z" fill="#bebfa8"/>
      <path id="Path_110" data-name="Path 110" d="M31.455,67.8a3.484,3.484,0,0,1-1.778.586A4.027,4.027,0,0,0,22.805,65.7l-.87.865V64.516a3.871,3.871,0,0,0-7.742,0v6.452h2.581V64.516a1.29,1.29,0,1,1,2.581,0v5.161a1.29,1.29,0,0,0,2.2.912l3.07-3.07a1.446,1.446,0,0,1,2.47,1.023,2.427,2.427,0,0,0,2.425,2.425,6.047,6.047,0,0,0,3.366-1.019l2.667-1.778-1.432-2.147Z" fill="#bebfa8"/>
    </g>
  </g>
</svg>
