<svg xmlns="http://www.w3.org/2000/svg" xmlns:xlink="http://www.w3.org/1999/xlink" width="80" height="80" viewBox="0 0 80 80">
  <defs>
    <clipPath id="clip-path">
      <rect id="Rectangle_124" data-name="Rectangle 124" width="80" height="80" transform="translate(1427 2988)" fill="#bebfa8"/>
    </clipPath>
  </defs>
  <g id="row3-1" transform="translate(-1427 -2988)" clip-path="url(#clip-path)">
    <g id="svgviewer-output_27_" data-name="svgviewer-output (27)" transform="translate(1427 2988)">
      <path id="Path_86" data-name="Path 86" d="M72.643,9H68.56a1.174,1.174,0,1,0,0,2.349h4.083a5.014,5.014,0,0,1,5.008,5.008v31.49a5.014,5.014,0,0,1-5.008,5.008H66.794a1.734,1.734,0,0,0-1.235.512L63.2,55.719l-2.356-2.356a1.736,1.736,0,0,0-1.235-.512H24.627a5.014,5.014,0,0,1-5.008-5.008V39.889a1.174,1.174,0,1,0-2.349,0v7.954A7.365,7.365,0,0,0,24.627,55.2H59.363l2.605,2.606a1.749,1.749,0,0,0,2.47,0L67.044,55.2h5.6A7.365,7.365,0,0,0,80,47.843V16.353A7.366,7.366,0,0,0,72.643,9Z" fill="#bebfa8"/>
      <path id="Path_87" data-name="Path 87" d="M18.444,36.059a1.174,1.174,0,0,0,1.174-1.174V16.353a5.014,5.014,0,0,1,5.008-5.008H63.555a1.174,1.174,0,0,0,0-2.349H24.626a7.365,7.365,0,0,0-7.357,7.357V34.884a1.174,1.174,0,0,0,1.174,1.174Z" fill="#bebfa8"/>
      <path id="Path_88" data-name="Path 88" d="M57.641,57.549a1.174,1.174,0,0,0-1.174,1.174v1.808a5.014,5.014,0,0,1-5.008,5.008H20.387a1.735,1.735,0,0,0-1.235.512L16.8,68.406,14.441,66.05a1.736,1.736,0,0,0-1.235-.512H7.357a5.014,5.014,0,0,1-5.008-5.008V54.167a1.174,1.174,0,0,0-2.349,0v6.364a7.365,7.365,0,0,0,7.357,7.357h5.6l2.605,2.605a1.749,1.749,0,0,0,2.47,0l2.605-2.605H51.459a7.365,7.365,0,0,0,7.357-7.357V58.723A1.175,1.175,0,0,0,57.641,57.549Z" fill="#bebfa8"/>
      <path id="Path_89" data-name="Path 89" d="M1.174,50.337a1.174,1.174,0,0,0,1.174-1.174V29.041a5.014,5.014,0,0,1,5.008-5.008h6.39a1.174,1.174,0,0,0,0-2.349H7.357A7.365,7.365,0,0,0,0,29.041V49.162a1.174,1.174,0,0,0,1.174,1.174Z" fill="#bebfa8"/>
      <path id="Path_90" data-name="Path 90" d="M64.619,30.2a2.394,2.394,0,0,0,1.425-.689l.316-.316h0a4.727,4.727,0,0,0,0-6.677l-7.074-7.074a4.727,4.727,0,0,0-6.677,0l-.316.316a2.4,2.4,0,0,0-.687,1.423,3.5,3.5,0,0,0-1.659.924l-9.084,9.084a3.494,3.494,0,0,0-.924,1.658,2.4,2.4,0,0,0-1.423.689l-.317.316a4.727,4.727,0,0,0,0,6.677L45.273,43.6a4.727,4.727,0,0,0,6.676,0h0l.316-.316a2.4,2.4,0,0,0,.688-1.427,3.48,3.48,0,0,0,1.659-.92l.487-.487.711.711a3.017,3.017,0,0,0,3.552.525L67,48.638a3.108,3.108,0,0,0,4.391-4.39l-6.946-7.639a3.017,3.017,0,0,0-.527-3.553l-.711-.711.486-.486a3.486,3.486,0,0,0,.922-1.657ZM53.954,17.421l.316-.316a2.375,2.375,0,0,1,3.355,0L64.7,24.178a2.375,2.375,0,0,1,0,3.355l-.316.316a.062.062,0,0,1-.047.019.061.061,0,0,1-.047-.019L53.954,17.514a.066.066,0,0,1,0-.093ZM42.523,28.852l9.084-9.084a1.292,1.292,0,0,1,.936-.343l9.836,9.836a1.292,1.292,0,0,1-.343.936l-9.084,9.084a1.289,1.289,0,0,1-.936.343L42.18,29.788a1.291,1.291,0,0,1,.343-.936Zm8.082,12.776-.316.316a2.375,2.375,0,0,1-3.355,0L39.86,34.87a2.375,2.375,0,0,1,0-3.355l.317-.316a.062.062,0,0,1,.047-.019.061.061,0,0,1,.047.019L50.605,41.534a.066.066,0,0,1,0,.093Zm19.026,5.248a.758.758,0,0,1-1.048.025l-7.462-6.784,1.751-1.751,6.784,7.462A.759.759,0,0,1,69.631,46.875Zm-7.37-12.159a.664.664,0,0,1,0,.939l-3.85,3.85a.665.665,0,0,1-.939,0l-.711-.711L61.549,34Z" fill="#bebfa8"/>
      <path id="Path_91" data-name="Path 91" d="M24.116,47.252a2.2,2.2,0,0,0,2.2,2.2h18.6a1.174,1.174,0,1,0,0-2.349H26.465V45.212a1.311,1.311,0,0,1,1.31-1.31H38.3a1.174,1.174,0,1,0,0-2.349H28.949v-1.04A1.252,1.252,0,0,1,30.2,39.263h4.9a1.174,1.174,0,1,0,0-2.349H30.2a3.6,3.6,0,0,0-3.6,3.6v1.235a3.664,3.664,0,0,0-2.484,3.464Z" fill="#bebfa8"/>
      <path id="Path_92" data-name="Path 92" d="M33.2,29.722v-2.9a1.174,1.174,0,1,0-2.349,0v2.9a1.174,1.174,0,1,0,2.349,0Z" fill="#bebfa8"/>
      <path id="Path_93" data-name="Path 93" d="M25.536,31.808l1.831,1.418A1.174,1.174,0,1,0,28.8,31.369l-1.831-1.418a1.174,1.174,0,0,0-1.438,1.857Z" fill="#bebfa8"/>
    </g>
  </g>
</svg>
