<svg xmlns="http://www.w3.org/2000/svg" xmlns:xlink="http://www.w3.org/1999/xlink" width="80" height="80" viewBox="0 0 80 80">
  <defs>
    <clipPath id="clip-path">
      <rect id="Rectangle_125" data-name="Rectangle 125" width="80" height="80" transform="translate(1094 2988)" fill="#bebfa8" stroke="#bebfa8" stroke-width="0.5"/>
    </clipPath>
  </defs>
  <g id="row3-2" transform="translate(-1094 -2988)" clip-path="url(#clip-path)">
    <path id="polygon2401-4" d="M7.534,2.692a2.632,2.632,0,0,0-2.62,2.62V80.067a2.636,2.636,0,0,0,2.62,2.625.889.889,0,1,0,0-1.779.831.831,0,0,1-.841-.846V5.311a.826.826,0,0,1,.841-.841.889.889,0,1,0,0-1.779Zm5.336,0a2.632,2.632,0,0,0-2.62,2.62V80.067a2.636,2.636,0,0,0,2.62,2.625.889.889,0,1,0,0-1.779.829.829,0,0,1-.839-.846V5.311a.825.825,0,0,1,.839-.841.889.889,0,1,0,0-1.779Zm5.293,0a2.632,2.632,0,0,0-2.62,2.62V80.067a2.636,2.636,0,0,0,2.62,2.625H73.373a2.66,2.66,0,0,0,2.646-2.646V73.269l4.2-4.319a.89.89,0,0,0,.255-.625v-17.5a.89.89,0,0,0-.248-.624l-4.2-4.336V38.289l3.21-3.059a3.993,3.993,0,0,0,1.24-2.889V17.49a3.993,3.993,0,0,0-1.24-2.889l-3.21-3.059V5.311a2.632,2.632,0,0,0-2.62-2.62Zm0,1.779H73.4a.826.826,0,0,1,.841.841V11.93a.89.89,0,0,0,.274.643L78,15.889a2.215,2.215,0,0,1,.69,1.6V32.341a2.215,2.215,0,0,1-.69,1.6l-3.486,3.316a.888.888,0,0,0-.274.643V80.046a.854.854,0,0,1-.867.867H18.163a.831.831,0,0,1-.841-.846V5.311a.826.826,0,0,1,.841-.841Zm3.6,1.734a2.683,2.683,0,0,0-2.673,2.665V76.462a2.689,2.689,0,0,0,2.673,2.672H69.82a2.654,2.654,0,0,0,2.639-2.646V8.869A2.676,2.676,0,0,0,69.794,6.2Zm0,1.779H69.794a.876.876,0,0,1,.893.886V76.488a.854.854,0,0,1-.867.867H21.768a.882.882,0,0,1-.893-.893V8.869a.876.876,0,0,1,.893-.886Zm8,2.667a1.792,1.792,0,0,0-1.779,1.779v1.779a1.792,1.792,0,0,0,1.779,1.779H61.791a1.792,1.792,0,0,0,1.779-1.779V12.428a1.792,1.792,0,0,0-1.779-1.779Zm0,1.779H61.791v1.779H29.771Zm16.9,7.136a.89.89,0,1,0,0,1.781H66.235a.89.89,0,1,0,0-1.781Zm-4.764.03a2.111,2.111,0,0,0-1.467.591l-4.761,4.709V23.162a.889.889,0,0,0-.893-.893H30.124a.89.89,0,0,0-.893.893v8.112l-5.416,5.361a1.364,1.364,0,0,0,.952,2.343h4.405V49.807h-.919a.889.889,0,0,0,0,1.779H55.309a.889.889,0,1,0,0-1.779h-.676V38.979h4.412a1.365,1.365,0,0,0,.945-2.343L43.37,20.185a2.1,2.1,0,0,0-1.464-.591Zm0,1.765a.316.316,0,0,1,.224.1L58.041,37.2H54.1L42.522,26.083a.889.889,0,0,0-1.235,0L29.71,37.2H25.772q7.958-7.873,15.909-15.744a.319.319,0,0,1,.222-.1Zm10.991,2.649a.889.889,0,0,0,0,1.779H66.235a.889.889,0,1,0,0-1.779Zm-21.883.04H33.9v2.6l-2.889,2.859ZM41.9,27.961,52.856,38.467V49.805H50.6V41.361a1.83,1.83,0,0,0-1.819-1.819H44.116A1.83,1.83,0,0,0,42.3,41.361v8.444H30.952V38.467Zm15.443.5a.889.889,0,1,0,0,1.779h8.889a.889.889,0,1,0,0-1.779ZM60.9,32.9a.89.89,0,0,0,0,1.781h5.336a.89.89,0,1,0,0-1.781Zm1.779,4.426a.889.889,0,0,0,0,1.779h3.558a.889.889,0,1,0,0-1.779ZM33.855,39.542a.889.889,0,0,0-.888.888v6.532a.89.89,0,0,0,.888.886h5.6a.89.89,0,0,0,.886-.886V40.43a.889.889,0,0,0-.886-.888Zm.886,1.781h3.822v4.753H34.741Zm14.084.038v8.444H44.072V46.449h.978a.889.889,0,1,0,0-1.779h-.978V41.361Zm9.407,1.306a.89.89,0,0,0,0,1.781h7.117v5.357H58.232a.889.889,0,0,0,0,1.779h7.117a1.792,1.792,0,0,0,1.779-1.779V44.448a1.794,1.794,0,0,0-1.779-1.781Zm17.786,5.755,2.672,2.755V67.965l-2.672,2.752ZM25.326,54.249a.89.89,0,1,0,0,1.781H66.235a.89.89,0,1,0,0-1.781ZM51.115,66.678a8,8,0,0,0,.2,1.779H49.336a.89.89,0,0,0,0,1.781h2.616a8,8,0,1,0-.837-3.559ZM25.326,59.587a.89.89,0,1,0,0,1.781h15.12a.89.89,0,0,0,0-1.781Zm40.023,7.091a6.23,6.23,0,0,1-11.343,3.559h6.005a.89.89,0,0,0,0-1.781h-6.86a6.228,6.228,0,1,1,12.2-1.779ZM25.326,68.457a.89.89,0,1,0,0,1.781H31.55a.89.89,0,0,0,0-1.781ZM27.1,72.909a.889.889,0,1,0,0,1.779h9.784a.889.889,0,0,0,0-1.779Z" transform="translate(1091.309 2985.308)" fill="#bebfa8" stroke="#bebfa8" stroke-width="0.5"/>
  </g>
</svg>
