<svg xmlns="http://www.w3.org/2000/svg" xmlns:xlink="http://www.w3.org/1999/xlink" width="80" height="80" viewBox="0 0 80 80">
  <defs>
    <clipPath id="clip-path">
      <rect id="Rectangle_127" data-name="Rectangle 127" width="80" height="80" transform="translate(413 2988)" fill="#bebfa8"/>
    </clipPath>
  </defs>
  <g id="row3-4" transform="translate(-413 -2988)" clip-path="url(#clip-path)">
    <g id="svgviewer-output_24_" data-name="svgviewer-output (24)" transform="translate(411.913 2986.813)">
      <path id="Path_73" data-name="Path 73" d="M68.86,27.029a4.457,4.457,0,0,0-2.161.577,4.438,4.438,0,0,0-6.435-2.574,4.475,4.475,0,0,0-8.549,0,4.457,4.457,0,0,0-2.161-.577,4.5,4.5,0,0,0-4.5,4.5v2.059A6.447,6.447,0,0,0,39.9,37.326v10.3A11.534,11.534,0,0,0,46.335,58v3.778H45.048a1.287,1.287,0,0,0-1.287,1.287V79.8a1.287,1.287,0,0,0,1.287,1.287H68.216A1.287,1.287,0,0,0,69.5,79.8V63.068a1.287,1.287,0,0,0-1.287-1.287H66.929V58a11.534,11.534,0,0,0,6.435-10.38V31.534a4.5,4.5,0,0,0-4.5-4.5Zm-6.435,0a1.931,1.931,0,0,1,1.931,1.931V40.543a1.931,1.931,0,1,1-3.861,0V28.96a1.931,1.931,0,0,1,1.931-1.931Zm-8.366-.644a1.931,1.931,0,0,1,3.861,0V40.543a1.931,1.931,0,0,1-3.861,0v-1.1a4.478,4.478,0,0,0,0-8.109ZM51.484,40.543a1.931,1.931,0,0,1-1.931,1.931,1.9,1.9,0,0,1-.644-.116V39.9h2.574ZM49.553,27.029a1.931,1.931,0,0,1,1.931,1.931V30.89H47.623V28.96A1.931,1.931,0,0,1,49.553,27.029ZM66.929,78.513H46.335V64.355H66.929Zm-1.77-22.534a1.287,1.287,0,0,0-.8,1.192v4.61H48.91V57.17a1.287,1.287,0,0,0-.8-1.192,8.977,8.977,0,0,1-5.631-8.356v-10.3a3.861,3.861,0,0,1,3.861-3.861h5.792a1.931,1.931,0,0,1,0,3.861h-4.5a1.287,1.287,0,0,0-1.287,1.287v7.723a1.287,1.287,0,0,0,1.287,1.287,6.443,6.443,0,0,1,6.435,6.435h2.574A9.024,9.024,0,0,0,48.91,45.14V45a4.413,4.413,0,0,0,3.861-1.31,4.483,4.483,0,0,0,6.435,0,4.483,4.483,0,0,0,6.435,0,4.435,4.435,0,0,0,5.148.91v3.026a8.978,8.978,0,0,1-5.631,8.356ZM70.79,40.543a1.931,1.931,0,0,1-3.861,0v-9.01a1.931,1.931,0,0,1,3.861,0Z" fill="#bebfa8"/>
      <path id="Path_74" data-name="Path 74" d="M54.058,19.306h5.148a1.287,1.287,0,0,0,1.287-1.18L61.781,2.681a1.287,1.287,0,0,0-1.287-1.394H52.771a1.287,1.287,0,0,0-1.287,1.394l1.287,15.445A1.287,1.287,0,0,0,54.058,19.306ZM59.094,3.861,58.022,16.732h-2.78L54.17,3.861Z" fill="#bebfa8"/>
      <path id="Path_75" data-name="Path 75" d="M80.71,11.96,75.561,6.811a1.264,1.264,0,0,0-.947-.376,1.287,1.287,0,0,0-.924.431l-10.3,11.584a1.287,1.287,0,0,0,.051,1.766l3.861,3.861a1.287,1.287,0,0,0,1.765.053l11.584-10.3a1.287,1.287,0,0,0,.055-1.873ZM68.268,21.4l-2.144-2.146L74.707,9.6l3.218,3.218Z" fill="#bebfa8"/>
      <path id="Path_76" data-name="Path 76" d="M44.194,24.13a1.287,1.287,0,0,0,1.765-.053l3.861-3.861a1.287,1.287,0,0,0,.051-1.766L39.574,6.867A1.287,1.287,0,0,0,37.7,6.813l-5.148,5.148a1.287,1.287,0,0,0,.055,1.873ZM38.558,9.6l8.584,9.653L45,21.4l-9.653-8.584Z" fill="#bebfa8"/>
      <path id="Path_77" data-name="Path 77" d="M18.019,16.732a16.733,16.733,0,0,0-.4,33.464l7.406,4.936a1.287,1.287,0,0,0,2-1.075V47.566a16.732,16.732,0,0,0-9.01-30.834Zm7.079,29a1.287,1.287,0,0,0-.644,1.115v4.809l-5.721-3.814a1.3,1.3,0,0,0-.714-.216A14.152,14.152,0,1,1,25.1,45.729Z" fill="#bebfa8"/>
      <path id="Path_78" data-name="Path 78" d="M19.306,24.455H16.732v2.573H7.723V29.6H10.3v5.148H9.01v2.574h5.148V34.752H12.871V29.6h3.861V42.474H14.158v2.574h7.723V42.474H19.306V29.6h3.861v5.15H21.881v2.574h5.148V34.752H25.742V29.6h2.573V27.028H19.306Z" fill="#bebfa8"/>
    </g>
  </g>
</svg>
