<svg xmlns="http://www.w3.org/2000/svg" xmlns:xlink="http://www.w3.org/1999/xlink" width="80" height="80" viewBox="0 0 80 80">
  <defs>
    <clipPath id="clip-path">
      <rect id="Rectangle_126" data-name="Rectangle 126" width="80" height="80" transform="translate(777 2988)" fill="#bebfa8"/>
    </clipPath>
  </defs>
  <g id="row3-3" transform="translate(-777 -2988)" clip-path="url(#clip-path)">
    <g id="svgviewer-output_25_" data-name="svgviewer-output (25)" transform="translate(772.556 2983.556)">
      <path id="Path_79" data-name="Path 79" d="M60.991,22.16a1.6,1.6,0,0,1-1.6-1.6V18.468a1.6,1.6,0,1,1,3.2,0v2.091A1.6,1.6,0,0,1,60.991,22.16Z" fill="#bebfa8"/>
      <path id="Path_80" data-name="Path 80" d="M60.991,42.84a6.973,6.973,0,0,1-7.143-6.772,1.6,1.6,0,0,1,3.2,0,3.96,3.96,0,0,0,7.881,0,3.773,3.773,0,0,0-3.94-3.568,6.973,6.973,0,0,1-7.143-6.772,7.154,7.154,0,0,1,14.287,0,1.6,1.6,0,0,1-3.2,0,3.96,3.96,0,0,0-7.881,0A3.773,3.773,0,0,0,60.991,29.3a6.973,6.973,0,0,1,7.143,6.771,6.973,6.973,0,0,1-7.143,6.772Z" fill="#bebfa8"/>
      <path id="Path_81" data-name="Path 81" d="M60.991,45.211a1.6,1.6,0,0,1-1.6-1.6V41.239a1.6,1.6,0,1,1,3.2,0V43.61A1.6,1.6,0,0,1,60.991,45.211Z" fill="#bebfa8"/>
      <path id="Path_82" data-name="Path 82" d="M35.471,61.53a1.6,1.6,0,0,1-1.132-.469L19.192,45.914a1.6,1.6,0,1,1,2.264-2.265L36.6,58.8a1.6,1.6,0,0,1-1.132,2.734Z" fill="#bebfa8"/>
      <path id="Path_83" data-name="Path 83" d="M20.324,61.53A1.6,1.6,0,0,1,19.192,58.8L34.339,43.65A1.6,1.6,0,1,1,36.6,45.914L21.456,61.061a1.6,1.6,0,0,1-1.132.469Z" fill="#bebfa8"/>
      <path id="Path_84" data-name="Path 84" d="M69.975,58.743a1.6,1.6,0,0,1-.808-.219l-10-5.845C47,51.808,37.539,42.39,37.539,31.039c0-11.982,10.521-21.73,23.453-21.73s23.453,9.748,23.453,21.73c0,8.206-5.025,15.708-12.893,19.388l.025,6.707a1.6,1.6,0,0,1-1.6,1.608Zm-9.129-8.794,7.518,4.4-.019-4.952a1.6,1.6,0,0,1,.988-1.486c7.234-3,11.909-9.621,11.909-16.867,0-10.216-9.084-18.527-20.25-18.527s-20.25,8.311-20.25,18.527c0,9.8,8.383,17.912,19.084,18.471a1.6,1.6,0,0,1,1.02.439Z" fill="#bebfa8"/>
      <path id="Path_85" data-name="Path 85" d="M18.914,79.58a1.6,1.6,0,0,1-1.6-1.608l.025-6.707C9.469,67.583,4.444,60.081,4.444,51.876c0-11.982,10.521-21.73,23.453-21.73a24.768,24.768,0,0,1,12.447,3.333,1.6,1.6,0,0,1,.762,1.056,18.613,18.613,0,0,0,9.037,12.106,1.6,1.6,0,0,1,.762,1.054,20.33,20.33,0,0,1,.444,4.181c0,11.351-9.46,20.769-21.628,21.639l-10,5.846a1.6,1.6,0,0,1-.808.219ZM27.9,33.349c-11.166,0-20.25,8.311-20.25,18.527,0,7.246,4.674,13.866,11.909,16.868a1.6,1.6,0,0,1,.988,1.485l-.019,4.952,7.566-4.424a1.546,1.546,0,0,1,.972-.411c10.7-.558,19.084-8.672,19.084-18.47a16.9,16.9,0,0,0-.247-2.848,21.833,21.833,0,0,1-9.763-13.115A21.6,21.6,0,0,0,27.9,33.349Z" fill="#bebfa8"/>
    </g>
  </g>
</svg>
