<svg xmlns="http://www.w3.org/2000/svg" width="75" height="64.452" viewBox="0 0 75 64.452">
  <g id="safwalaw-logo" transform="translate(-192.3 -241.229)">
    <g id="Letters" transform="translate(192.3 241.229)">
      <path id="Path_1" data-name="Path 1" d="M601.8,284.3h28.69l1.186,3.128h-28.69Z" transform="translate(-557.633 -279.654)" fill="#162820"/>
      <rect id="Rectangle_2" data-name="Rectangle 2" width="4.886" height="4.8" transform="translate(31.976 3.455) rotate(-45)" fill="#162820"/>
      <path id="Path_2" data-name="Path 2" d="M274.536,272.8l3.451,3.451-3.451,3.451-3.236-3.451Z" transform="translate(-262.779 -269.395)" fill="#162820"/>
      <path id="Path_3" data-name="Path 3" d="M209.859,272.8l3.451,3.451-3.451,3.451-3.559-3.451Z" transform="translate(-204.79 -269.395)" fill="#162820"/>
      <path id="Path_4" data-name="Path 4" d="M200.6,350.8l-8.3,10.678,9.06,6.256C209.665,356.085,200.6,350.8,200.6,350.8Zm1.186,11.756-5.609-3.991,1.941-2.589c.863-.863,2.049,0,2.049,0C202.546,358.458,201.791,362.556,201.791,362.556Z" transform="translate(-192.3 -338.982)" fill="#162820"/>
      <path id="Path_5" data-name="Path 5" d="M394.395,324.015H375.736l-2.589,3.991s19.954.108,20.385.108,3.02-.324,4.746,5.5h-22l-5.393-9.276-2.265,3.559,3.236,5.716-6.9.108a10,10,0,0,0,1.51-5.716,9.8,9.8,0,0,0-4.314-7.442s-.539-.216-1.079.539-7.119,10.139-7.119,10.139l3.344,2.373h-4.638s-.216-8.521-8.952-9.384c0,0-1.4-.324-1.4.755v12.835h7.226s.108,4.638-6.04,4.53l3.559,3.883a7.529,7.529,0,0,0,5.824-8.413h21.571l2.589,4.53,2.8-2.7-.971-1.834h17.473l4.746-7.011S402.053,325.31,394.395,324.015ZM344.134,333.4v-4.206l.216-.324a5.317,5.317,0,0,1,5.5,4.53Zm18.659-1.294-4.854-3.559,2.589-3.344h.324A5.494,5.494,0,0,1,362.793,332.1Z" transform="translate(-326.121 -311.982)" fill="#162820"/>
      <path id="Path_6" data-name="Path 6" d="M862.32,509.8l-3.02,4.1v21.248l3.02-3.991Z" transform="translate(-787.36 -480.833)" fill="#162820"/>
      <path id="Path_7" data-name="Path 7" d="M543.549,513.9v17.149h-4.422l1.726-2.7c.324-6.148-6.579-7.011-6.579-7.011h-5.393l-2.7,3.991,3.236,5.716h-7.55l1.726-2.8c.216-6.579-7.011-6.9-7.011-6.9H511.3v4.1l4.854.108c3.559.324,4.638,5.5,4.638,5.5H511.3v4.1h32.249l3.02-3.991V509.8Zm-9.6,17.149-3.344-5.609h3.344c2.912.647,4.1,5.609,4.1,5.609Z" transform="translate(-476.894 -480.833)" fill="#162820"/>
      <path id="Path_8" data-name="Path 8" d="M539.666,548.8l1.186,3.128H512.594L511.3,548.8Z" transform="translate(-476.894 -515.626)" fill="#162820"/>
      <path id="Path_9" data-name="Path 9" d="M318.879,780.251l-3.128,3.236-3.451-3.451,3.344-3.236,3.236,3.128,3.236-3.128,3.451,3.344-3.451,3.344Z" transform="translate(-299.357 -719.035)" fill="#162820"/>
      <path id="Path_10" data-name="Path 10" d="M202.751,526.8l-3.451,3.451,3.4,3.4,3.182-3.29,3.344,3.236,3.344-3.344-3.344-3.451-3.236,3.236Z" transform="translate(-198.545 -495.999)" fill="#162820"/>
      <path id="Path_11" data-name="Path 11" d="M230.4,514.006v17.041h-3.883v-7.011l-4.1,2.7v4.314h-6.579V518.429l-3.02,4.1v1.078l-2.265-2.157a10.528,10.528,0,0,0-7.011,6.579c-.647,1.941,2.373,7.118,2.373,7.118H230.4l3.02-4.1V509.8Zm-17.581,17.041H206.46c1.618-6.256,6.364-5.609,6.364-5.609Z" transform="translate(-202.254 -480.833)" fill="#162820"/>
    </g>
    <g id="Slogan" transform="translate(227.073 300.827)">
      <path id="Path_12" data-name="Path 12" d="M515.714,803.731a1.14,1.14,0,0,1-.518-.108.9.9,0,0,1-.367-.291.753.753,0,0,1-.129-.431,1.314,1.314,0,0,1,.011-.194c.011-.076.022-.173.032-.27s.032-.194.043-.3.032-.194.043-.291l.334.054c-.022.162-.054.313-.065.453s-.032.248-.043.345a1.771,1.771,0,0,0-.011.216.506.506,0,0,0,.086.28.718.718,0,0,0,.237.194.951.951,0,0,0,.356.065.822.822,0,0,0,.345-.065.459.459,0,0,0,.216-.183.441.441,0,0,0,.076-.27v-1.844h.334v1.844a.706.706,0,0,1-.129.432.845.845,0,0,1-.356.28A1.765,1.765,0,0,1,515.714,803.731Zm-.183-2.686V800.7h.334v.345Z" transform="translate(-514.7 -799.956)" fill="#162820"/>
      <path id="Path_13" data-name="Path 13" d="M537.59,806.51a2.462,2.462,0,0,1-.27-.022c-.1-.011-.194-.032-.3-.054l.054-.27c.129.011.227.022.313.032a1.593,1.593,0,0,0,.216.011.6.6,0,0,0,.41-.108.384.384,0,0,0,.129-.313v-1.661l.13.086h-.561a.689.689,0,0,0-.291.043.27.27,0,0,0-.151.173,1.166,1.166,0,0,0-.043.377,1.055,1.055,0,0,0,.043.367.27.27,0,0,0,.151.173.721.721,0,0,0,.291.043h.421v.291h-.421a1.019,1.019,0,0,1-.485-.1.51.51,0,0,1-.248-.291,1.335,1.335,0,0,1-.075-.5,1.4,1.4,0,0,1,.075-.507.6.6,0,0,1,.248-.291,1.019,1.019,0,0,1,.485-.1h.755v1.866a.657.657,0,0,1-.108.388.684.684,0,0,1-.3.248A.822.822,0,0,1,537.59,806.51Z" transform="translate(-534.506 -802.81)" fill="#162820"/>
      <path id="Path_14" data-name="Path 14" d="M552.6,806.778h-.1c-.032,0-.065-.011-.108-.011l.032-.291a.3.3,0,0,1,.1.011h.076a.328.328,0,0,0,.259-.119.515.515,0,0,0,.1-.334V804.2h.334v1.834a.859.859,0,0,1-.086.388.644.644,0,0,1-.237.27A.8.8,0,0,1,552.6,806.778Z" transform="translate(-548.334 -803.078)" fill="#162820"/>
      <path id="Path_15" data-name="Path 15" d="M566,799.724V797.2h.334v2.524Zm.334,0v-.291h.421v.291Zm.421,0v-.291a.04.04,0,0,1,.032.011c.011.011.022.022.022.032s.011.022.011.043v.119c0,.022-.011.032-.011.043s-.011.022-.022.032A.039.039,0,0,1,566.755,799.724Z" transform="translate(-560.467 -796.833)" fill="#162820"/>
      <path id="Path_16" data-name="Path 16" d="M572.465,796.691a.04.04,0,0,1-.032-.011c-.011-.011-.022-.022-.022-.032s-.011-.032-.011-.043v-.14a.083.083,0,0,1,.022-.054.056.056,0,0,1,.043-.022Zm0,0V796.4h.518l-.086.086v-1.208h.334v1.413Zm.766,0V796.4h.367a.43.43,0,0,0,.183-.032c.043-.022.065-.076.086-.14a1.236,1.236,0,0,0,.022-.313v-.809h.334v.809a1.368,1.368,0,0,1-.065.464.431.431,0,0,1-.2.248.671.671,0,0,1-.356.076h-.367Zm.4-2.092v-.345h.324v.345Zm.28-.485V793.8h.3v.313Zm.475,2.578a.63.63,0,0,1-.248-.043.8.8,0,0,1-.237-.151l.2-.216a.828.828,0,0,0,.14.1.287.287,0,0,0,.129.032h.636l-.14.14v-.831a1.321,1.321,0,0,0-.011-.183q-.016-.113-.032-.259c-.011-.1-.032-.194-.054-.3l.324-.054c.022.086.032.183.054.28a2.707,2.707,0,0,1,.043.291,2.224,2.224,0,0,1,.022.227v.982h-.831Zm-.227-2.092v-.345h.324v.345Zm1.057,2.092V796.4h.378v.291Zm.378,0V796.4a.04.04,0,0,1,.032.011c.011.011.022.022.022.032s.011.022.011.043v.129c0,.022-.011.032-.011.043s-.011.022-.022.032Z" transform="translate(-566.177 -793.8)" fill="#162820"/>
      <path id="Path_17" data-name="Path 17" d="M601.465,800.438a.04.04,0,0,1-.032-.011c-.011-.011-.022-.022-.022-.032s-.011-.032-.011-.043v-.14a.083.083,0,0,1,.022-.054.056.056,0,0,1,.043-.022Zm0,0v-.291h.6l-.172.129v-1.618h.334v1.769h-.766Zm.173-2.092V798h.324v.345Zm.529,0V798h.324v.345Zm.065,2.092v-.291h.4v.291Zm.4,0v-.291a.04.04,0,0,1,.032.011c.011.011.022.022.022.032s.011.022.011.043v.119c0,.022-.011.032-.011.043s-.011.022-.022.032A.04.04,0,0,1,602.63,800.438Z" transform="translate(-592.049 -797.547)" fill="#162820"/>
      <path id="Path_18" data-name="Path 18" d="M612.265,805.969a.039.039,0,0,1-.032-.011c-.011-.011-.022-.022-.022-.032s-.011-.032-.011-.043v-.14a.083.083,0,0,1,.022-.054.056.056,0,0,1,.043-.022Zm0,0v-.291h.518l-.086.086v-1.208h.334v1.413Zm.766,0v-.291h.367a.43.43,0,0,0,.183-.032c.043-.022.065-.076.086-.14a1.237,1.237,0,0,0,.022-.313v-.809h.334v.809a1.368,1.368,0,0,1-.065.464.432.432,0,0,1-.2.248.672.672,0,0,1-.356.076h-.367Zm1.154,0a.632.632,0,0,1-.248-.043.8.8,0,0,1-.237-.151l.2-.216a.833.833,0,0,0,.14.1.288.288,0,0,0,.129.032h.636l-.14.14V805a1.329,1.329,0,0,0-.011-.183q-.016-.113-.032-.259c-.011-.1-.032-.194-.054-.3l.324-.054c.021.086.032.183.054.28a2.705,2.705,0,0,1,.043.291,2.236,2.236,0,0,1,.022.227v.982h-.831Zm.82,0v-.291h.378v.291Zm.388,0v-.291a.04.04,0,0,1,.032.011c.011.011.022.022.022.032s.011.022.011.043v.129c0,.022-.011.032-.011.043s-.011.022-.022.032Z" transform="translate(-601.684 -803.078)" fill="#162820"/>
      <path id="Path_19" data-name="Path 19" d="M641.265,805.88a.04.04,0,0,1-.032-.011c-.011-.011-.022-.022-.022-.032s-.011-.032-.011-.043v-.14a.082.082,0,0,1,.022-.054.056.056,0,0,1,.043-.022Zm0,0v-.291h1.909l-.2.151v-.733a1.1,1.1,0,0,0-.054-.367.308.308,0,0,0-.183-.183.8.8,0,0,0-.345-.054,2.656,2.656,0,0,0-.291.022.878.878,0,0,0-.226.054l.2-.194c-.011.054-.032.119-.043.2s-.022.172-.032.27a3.93,3.93,0,0,0,0,.582c.011.1.022.173.032.248a.528.528,0,0,0,.032.14l-.313.086a1.028,1.028,0,0,1-.032-.162c-.011-.076-.022-.162-.032-.27s-.011-.216-.011-.334,0-.226.011-.334a2.554,2.554,0,0,1,.043-.3c.011-.086.032-.162.043-.216a1.573,1.573,0,0,1,.248-.065,2.086,2.086,0,0,1,.388-.032,1.38,1.38,0,0,1,.507.086.55.55,0,0,1,.3.28,1.218,1.218,0,0,1,.1.528v.874h-2.049Z" transform="translate(-627.556 -802.989)" fill="#162820"/>
      <path id="Path_20" data-name="Path 20" d="M686.59,806.51a2.465,2.465,0,0,1-.27-.022c-.1-.011-.194-.032-.3-.054l.054-.27c.129.011.227.022.313.032a1.593,1.593,0,0,0,.216.011.6.6,0,0,0,.41-.108.384.384,0,0,0,.129-.313v-1.661l.13.086h-.561a.688.688,0,0,0-.291.043.27.27,0,0,0-.151.173,1.166,1.166,0,0,0-.043.377,1.055,1.055,0,0,0,.043.367.3.3,0,0,0,.151.173.72.72,0,0,0,.291.043h.421v.291h-.421a1.02,1.02,0,0,1-.485-.1.509.509,0,0,1-.248-.291,1.334,1.334,0,0,1-.076-.5,1.394,1.394,0,0,1,.076-.507.6.6,0,0,1,.248-.291,1.02,1.02,0,0,1,.485-.1h.755v1.866a.657.657,0,0,1-.108.388.685.685,0,0,1-.3.248A1.175,1.175,0,0,1,686.59,806.51Z" transform="translate(-667.435 -802.81)" fill="#162820"/>
      <path id="Path_21" data-name="Path 21" d="M726.714,803.731a1.141,1.141,0,0,1-.518-.108.9.9,0,0,1-.367-.291.729.729,0,0,1-.129-.431,1.314,1.314,0,0,1,.011-.194c.011-.076.022-.173.032-.27s.032-.194.043-.3.032-.194.043-.291l.334.054c-.022.162-.054.313-.065.453s-.032.248-.043.345a1.751,1.751,0,0,0-.011.216.506.506,0,0,0,.086.28.719.719,0,0,0,.237.194.951.951,0,0,0,.356.065.857.857,0,0,0,.345-.065.458.458,0,0,0,.216-.183.441.441,0,0,0,.076-.27v-1.844h.334v1.844a.706.706,0,0,1-.13.432.883.883,0,0,1-.345.28A1.917,1.917,0,0,1,726.714,803.731Zm-.183-2.686V800.7h.334v.345Z" transform="translate(-702.942 -799.956)" fill="#162820"/>
      <path id="Path_22" data-name="Path 22" d="M748.59,806.51a2.46,2.46,0,0,1-.27-.022c-.1-.011-.194-.032-.3-.054l.054-.27c.129.011.227.022.313.032a1.594,1.594,0,0,0,.216.011.6.6,0,0,0,.41-.108.384.384,0,0,0,.129-.313v-1.661l.129.086h-.561a.689.689,0,0,0-.291.043.271.271,0,0,0-.151.173,1.167,1.167,0,0,0-.043.377,1.056,1.056,0,0,0,.043.367.27.27,0,0,0,.151.173.72.72,0,0,0,.291.043h.421v.291h-.421a1.02,1.02,0,0,1-.485-.1.509.509,0,0,1-.248-.291,1.335,1.335,0,0,1-.075-.5,1.4,1.4,0,0,1,.075-.507.6.6,0,0,1,.248-.291,1.02,1.02,0,0,1,.485-.1h.755v1.866a.657.657,0,0,1-.108.388.684.684,0,0,1-.3.248A1.174,1.174,0,0,1,748.59,806.51Zm.874-.809v-.291h.378v.291Zm.378,0v-.291a.04.04,0,0,1,.032.011c.011.011.022.022.022.032s.011.022.011.043v.129c0,.022-.011.032-.011.043s-.011.022-.022.032Z" transform="translate(-722.748 -802.81)" fill="#162820"/>
      <path id="Path_23" data-name="Path 23" d="M765.365,805.88a.04.04,0,0,1-.032-.011c-.011-.011-.022-.022-.022-.032s-.011-.032-.011-.043v-.14a.083.083,0,0,1,.022-.054.056.056,0,0,1,.043-.022v.3Zm0,0v-.291h1.909l-.2.151v-.733a1.1,1.1,0,0,0-.054-.367.308.308,0,0,0-.183-.183.8.8,0,0,0-.345-.054,2.654,2.654,0,0,0-.291.022.879.879,0,0,0-.227.054l.2-.194c-.011.054-.032.119-.043.2s-.022.172-.032.27a3.93,3.93,0,0,0,0,.582c.011.1.022.173.032.248a.53.53,0,0,0,.032.14l-.313.086a1.037,1.037,0,0,1-.032-.162c-.011-.076-.022-.162-.032-.27s-.011-.216-.011-.334.011-.226.011-.334a2.528,2.528,0,0,1,.043-.3c.011-.086.032-.162.043-.216a1.575,1.575,0,0,1,.248-.065,2.087,2.087,0,0,1,.388-.032,1.379,1.379,0,0,1,.507.086.55.55,0,0,1,.3.28,1.216,1.216,0,0,1,.1.528v.874h-2.049Z" transform="translate(-738.271 -802.989)" fill="#162820"/>
      <path id="Path_24" data-name="Path 24" d="M790.2,799.724V797.2h.334v2.524Zm.334,0v-.291h.421v.291Zm.421,0v-.291a.04.04,0,0,1,.032.011c.011.011.022.022.022.032s.011.022.011.043v.119c0,.022-.011.032-.011.043s-.011.022-.022.032A.039.039,0,0,1,790.955,799.724Z" transform="translate(-760.485 -796.833)" fill="#162820"/>
      <path id="Path_25" data-name="Path 25" d="M796.665,805.88a.039.039,0,0,1-.032-.011c-.011-.011-.022-.022-.022-.032s-.011-.032-.011-.043v-.14a.082.082,0,0,1,.022-.054.056.056,0,0,1,.043-.022Zm0,0v-.291h1.553l-.108.086v-.82a.39.39,0,0,0-.14-.334.686.686,0,0,0-.431-.119,2.371,2.371,0,0,0-.248.011c-.108.011-.226.022-.345.043l-.032-.27c.1-.022.2-.043.313-.065a1.8,1.8,0,0,1,.334-.022,1.245,1.245,0,0,1,.475.086.668.668,0,0,1,.313.259.7.7,0,0,1,.108.41v1.025Zm1.78,0v-.291h.377v.291Zm.377,0v-.291a.04.04,0,0,1,.032.011c.011.011.011.022.022.032s.011.022.011.043v.129c0,.022-.011.032-.011.043s-.011.022-.022.032Z" transform="translate(-766.195 -802.989)" fill="#162820"/>
      <path id="Path_26" data-name="Path 26" d="M816.665,805.88a.04.04,0,0,1-.032-.011c-.011-.011-.021-.022-.021-.032s-.011-.032-.011-.043v-.14a.083.083,0,0,1,.022-.054.056.056,0,0,1,.043-.022Zm0,0v-.291h1.909l-.2.151v-.733a1.1,1.1,0,0,0-.054-.367.308.308,0,0,0-.183-.183.8.8,0,0,0-.345-.054,2.658,2.658,0,0,0-.291.022.877.877,0,0,0-.226.054l.2-.194c-.011.054-.032.119-.043.2s-.022.172-.032.27a3.908,3.908,0,0,0,0,.582c.011.1.021.173.032.248a.523.523,0,0,0,.032.14l-.313.086a1.032,1.032,0,0,1-.032-.162c-.011-.076-.021-.162-.032-.27s-.011-.216-.011-.334,0-.226.011-.334a2.528,2.528,0,0,1,.043-.3c.011-.086.032-.162.043-.216a1.577,1.577,0,0,1,.248-.065,2.087,2.087,0,0,1,.388-.032,1.38,1.38,0,0,1,.507.086.55.55,0,0,1,.3.28,1.217,1.217,0,0,1,.1.528v.874h-2.049Z" transform="translate(-784.038 -802.989)" fill="#162820"/>
    </g>
  </g>
</svg>
