<svg xmlns="http://www.w3.org/2000/svg" width="57" height="57" viewBox="0 0 57 57">
  <g id="value" transform="translate(0.001 0)">
    <path id="Path_67" data-name="Path 67" d="M247.113,314.227A1.113,1.113,0,1,0,246,313.113,1.114,1.114,0,0,0,247.113,314.227Zm0,0" transform="translate(-218.614 -277.265)" fill="#162820"/>
    <path id="Path_68" data-name="Path 68" d="M42.822,31.1a1.114,1.114,0,0,0-.948-.556h-.015a1.114,1.114,0,0,0-.948.53L36.63,38.03l-7.017-11.4V13.36h16.7a1.113,1.113,0,0,0,.869-1.809l-3.9-4.871,3.9-4.871A1.113,1.113,0,0,0,46.312,0H28.5a1.113,1.113,0,0,0-1.113,1.113V26.627l-7.017,11.4-4.281-6.956a1.113,1.113,0,0,0-1.912.026L.149,55.329A1.113,1.113,0,0,0,1.112,57H55.886a1.113,1.113,0,0,0,.963-1.671ZM21.331,40.715l0-.006L28.5,29.066l15.82,25.708H12.679ZM40.989,5.985a1.113,1.113,0,0,0,0,1.391L44,11.133H29.612V2.227H44ZM15.169,33.829l3.893,6.325-9,14.62H3.043ZM46.933,54.774l-9-14.62,3.893-6.325L53.955,54.774Zm0,0" transform="translate(0)" fill="#162820"/>
    <path id="Path_69" data-name="Path 69" d="M276.072,358.616a1.113,1.113,0,0,0,1.9-1.167l-7.33-11.911a1.113,1.113,0,1,0-1.9,1.167Zm0,0" transform="translate(-238.677 -306.599)" fill="#162820"/>
  </g>
</svg>
