<svg xmlns="http://www.w3.org/2000/svg" width="57" height="57" viewBox="0 0 57 57">
  <g id="vision" transform="translate(-3.5 -3.5)">
    <g id="Group_97" data-name="Group 97">
      <path id="Path_60" data-name="Path 60" d="M27,60.5A1.5,1.5,0,0,1,25.5,59V45.5h-13V59a1.5,1.5,0,0,1-3,0V44A1.5,1.5,0,0,1,11,42.5H27A1.5,1.5,0,0,1,28.5,44V59A1.5,1.5,0,0,1,27,60.5Z" fill="#162820"/>
      <path id="Path_61" data-name="Path 61" d="M27,60.5A1.5,1.5,0,0,1,25.5,59V36a1.5,1.5,0,0,1,3,0V59A1.5,1.5,0,0,1,27,60.5Z" fill="#162820"/>
      <path id="Path_62" data-name="Path 62" d="M43,60.5A1.5,1.5,0,0,1,41.5,59V29.5H31.29a1.5,1.5,0,0,1,0-3H43A1.5,1.5,0,0,1,44.5,28V59A1.5,1.5,0,0,1,43,60.5Z" fill="#162820"/>
      <path id="Path_63" data-name="Path 63" d="M59,60.5H5a1.5,1.5,0,0,1,0-3H41.5V20A1.5,1.5,0,0,1,43,18.5H59A1.5,1.5,0,0,1,60.5,20V59A1.5,1.5,0,0,1,59,60.5Zm-14.5-3h13v-36h-13Z" fill="#162820"/>
      <path id="Path_64" data-name="Path 64" d="M51,21.5A1.5,1.5,0,0,1,49.5,20V13.5H40a1.5,1.5,0,0,1-1.27-2.3l1.7-2.7-1.7-2.7A1.5,1.5,0,0,1,40,3.5H51A1.5,1.5,0,0,1,52.5,5V20A1.5,1.5,0,0,1,51,21.5Zm-8.285-11H49.5v-4H42.715l.755,1.2a1.5,1.5,0,0,1,0,1.6Z" fill="#162820"/>
    </g>
    <g id="Group_98" data-name="Group 98">
      <path id="Path_65" data-name="Path 65" d="M21.5,32.5c-7.308,0-13.969-4.218-17.817-11.282a1.5,1.5,0,0,1,0-1.436C7.531,12.718,14.192,8.5,21.5,8.5s13.969,4.218,17.817,11.282a1.5,1.5,0,0,1,0,1.436C35.469,28.282,28.808,32.5,21.5,32.5ZM6.726,20.5c3.361,5.651,8.83,9,14.774,9s11.414-3.349,14.774-9c-3.361-5.651-8.83-9-14.774-9S10.086,14.849,6.726,20.5Z" fill="#162820"/>
      <path id="Path_66" data-name="Path 66" d="M21.5,28.5a8,8,0,1,1,8-8A8.009,8.009,0,0,1,21.5,28.5Zm0-13a5,5,0,1,0,5,5A5.006,5.006,0,0,0,21.5,15.5Z" fill="#162820"/>
    </g>
  </g>
</svg>
