<svg xmlns="http://www.w3.org/2000/svg" width="72" height="72" viewBox="0 0 72 72">
  <g id="whatsapp" transform="translate(-1798 -6830)">
    <path id="Path_28" data-name="Path 28" d="M36,72h0A36,36,0,0,0,72,36h0A36,36,0,0,0,36,0h0A36,36,0,0,0,0,36H0A36,36,0,0,0,36,72Z" transform="translate(1798 6830)" fill="#01e675" fill-rule="evenodd"/>
    <path id="Path_29" data-name="Path 29" d="M35.993,12h.014A24,24,0,1,1,22.8,56.035L13.58,58.984l2.99-8.917A23.984,23.984,0,0,1,35.993,12Zm-6.7,12.191c-.465-1.115-.818-1.157-1.523-1.185-.24-.014-.508-.028-.8-.028a3.482,3.482,0,0,0-2.455.86,7.664,7.664,0,0,0-2.454,5.841c0,3.443,2.511,6.773,2.849,7.238S29.8,44.55,36.853,47.472c5.515,2.286,7.152,2.074,8.407,1.806,1.834-.4,4.133-1.75,4.711-3.386a5.959,5.959,0,0,0,.409-3.33c-.169-.3-.635-.465-1.34-.818s-4.133-2.046-4.782-2.272a1.339,1.339,0,0,0-1.721.522,29.434,29.434,0,0,1-1.876,2.483,1.516,1.516,0,0,1-1.693.268,17.689,17.689,0,0,1-5.628-3.471,21.353,21.353,0,0,1-3.893-4.839c-.409-.705-.042-1.115.282-1.5.353-.438.691-.748,1.044-1.157a4.207,4.207,0,0,0,.776-1.1,1.432,1.432,0,0,0-.1-1.3C31.282,29.03,29.871,25.587,29.293,24.191Z" transform="translate(1798 6830)" fill="#fff" fill-rule="evenodd"/>
  </g>
</svg>
